<?xml version="1.0" encoding="utf-8"?>
<!-- Generator: Adobe Illustrator 16.0.0, SVG Export Plug-In . SVG Version: 6.00 Build 0)  -->
<!DOCTYPE svg PUBLIC "-//W3C//DTD SVG 1.1//EN" "http://www.w3.org/Graphics/SVG/1.1/DTD/svg11.dtd">
<svg version="1.1" xmlns="http://www.w3.org/2000/svg" xmlns:xlink="http://www.w3.org/1999/xlink" x="0px" y="0px" width="1654px"
	 height="691px" viewBox="0 0 1654 691" enable-background="new 0 0 1654 691" xml:space="preserve">
<g id="Layer_2">
	<g>
		<path fill-rule="evenodd" clip-rule="evenodd" fill="#3597DA" d="M834.348,592.658c-42.57,0-85.138-0.006-127.707,0.031
			c-1.214,0-1.383-0.34-1.382-1.443c0.028-85.139,0.029-170.275-0.007-255.413c0-1.213,0.34-1.382,1.443-1.382
			c85.137,0.029,170.273,0.029,255.412-0.007c1.213,0,1.385,0.341,1.383,1.442c-0.025,85.137-0.025,170.275,0.006,255.414
			c0,1.213-0.34,1.387-1.441,1.385C919.486,592.654,876.914,592.658,834.348,592.658z"/>
		<path fill-rule="evenodd" clip-rule="evenodd" fill="#FEFEFE" d="M840.541,516.178c-10.604,0-21.207-0.014-31.81,0.018
			c-1.649,0.006-3.073-0.285-3.915-1.85c-0.846-1.572-0.265-2.891,0.652-4.268c14.822-22.244,29.432-44.633,44.502-66.707
			c5.803-8.498,3.209-23.92-10.572-27.604c-7.162-1.915-13.469,0.074-18.338,5.651c-4.824,5.526-5.912,11.988-3.17,18.795
			c1.293,3.211,3.701,5.875,5.592,8.797c1.947,3.01,3.891,6.024,5.957,8.951c1.377,1.947,1.336,3.646,0.003,5.624
			c-9.012,13.38-17.954,26.802-26.921,40.212c-1.623,2.424-3.24,4.855-4.885,7.268c-2.209,3.234-4.702,3.225-6.875,0.012
			c-6.08-8.994-12.352-17.865-18.216-26.998c-8.747-13.625-15.664-27.944-17.605-44.406c-2.648-22.477,3.233-41.962,18.428-58.801
			c7.498-8.309,15.673-15.662,25.801-20.506c30.182-14.437,58.7-11.125,85.091,9.057c10.322,7.896,18.635,17.854,24.354,29.699
			c5.25,10.889,7.236,22.428,6.469,34.479c-0.576,9.004-2.457,17.735-5.25,26.286c-1.732,5.301-4.85,9.92-7.396,14.82
			c-5.434,10.441-12.645,19.732-19.063,29.537c-2.189,3.34-4.494,6.602-6.699,9.934c-0.938,1.418-2.156,2.025-3.861,2.02
			C862.053,516.16,851.299,516.178,840.541,516.178z"/>
		<path fill-rule="evenodd" clip-rule="evenodd" fill="#FEFEFE" d="M834.785,575.756c-3.002-3.574-5.314-7.445-7.84-11.158
			c-8.402-12.355-16.735-24.756-25.124-37.123c-0.875-1.289-1.304-2.57-0.569-4.01c0.736-1.436,2.037-1.912,3.584-1.91
			c19.912,0.004,39.822,0.004,59.736,0c1.58,0,2.949,0.428,3.713,1.955c0.736,1.469,0.252,2.738-0.609,4.008
			c-10.246,15.125-20.471,30.264-30.711,45.389C836.334,573.838,835.6,574.695,834.785,575.756z"/>
		<path fill-rule="evenodd" clip-rule="evenodd" fill="#2E95D9" d="M873.6,516.703c-21.951,0-43.904,0-65.855,0
			c0-0.049,0-0.1,0-0.15c21.973,0,43.947,0,65.92,0C873.643,516.604,873.623,516.654,873.6,516.703z"/>
		<path fill-rule="evenodd" clip-rule="evenodd" fill="#2B94D9" d="M804.668,521.125c20.027,0,40.059,0,60.086,0
			c0,0.047,0,0.096,0,0.143c-20.043,0-40.086,0-60.127,0C804.641,521.221,804.654,521.172,804.668,521.125z"/>
	</g>
	<g>
		<path fill-rule="evenodd" clip-rule="evenodd" fill="#3597DA" d="M1271.454,591.291c-84.626,0-169.244-0.013-253.868,0.062
			c-2.411,0-2.746-0.676-2.744-2.869c0.056-169.245,0.058-338.488-0.014-507.734c0-2.41,0.676-2.748,2.867-2.748
			c169.242,0.061,338.485,0.061,507.732-0.012c2.409,0,2.751,0.679,2.749,2.868c-0.053,169.244-0.053,338.49,0.011,507.734
			c0,2.412-0.678,2.756-2.865,2.753C1440.702,591.282,1356.071,591.291,1271.454,591.291z"/>
		<path fill-rule="evenodd" clip-rule="evenodd" fill="#FEFEFE" d="M1283.767,439.257c-21.081,0-42.158-0.026-63.234,0.034
			c-3.28,0.013-6.108-0.565-7.781-3.676c-1.682-3.124-0.528-5.746,1.297-8.485c29.465-44.219,58.505-88.723,88.465-132.605
			c11.534-16.892,6.378-47.549-21.016-54.874c-14.24-3.808-26.777,0.147-36.454,11.234c-9.592,10.985-11.753,23.832-6.304,37.362
			c2.571,6.383,7.356,11.678,11.116,17.484c3.871,5.985,7.735,11.979,11.842,17.798c2.736,3.869,2.658,7.245,0.007,11.178
			c-17.914,26.6-35.69,53.278-53.518,79.94c-3.228,4.816-6.44,9.647-9.71,14.444c-4.392,6.428-9.348,6.409-13.666,0.023
			c-12.086-17.881-24.554-35.515-36.211-53.672c-17.389-27.082-31.14-55.546-34.999-88.274
			c-5.264-44.677,6.431-83.414,36.632-116.887c14.906-16.517,31.159-31.135,51.291-40.765
			c59.998-28.698,116.688-22.114,169.149,18.006c20.52,15.695,37.044,35.491,48.413,59.039
			c10.437,21.643,14.385,44.581,12.858,68.541c-1.145,17.898-4.884,35.256-10.435,52.252c-3.442,10.539-9.643,19.721-14.703,29.462
			c-10.801,20.757-25.138,39.225-37.896,58.717c-4.352,6.639-8.935,13.123-13.316,19.749c-1.862,2.816-4.285,4.025-7.677,4.011
			C1326.529,439.223,1305.151,439.257,1283.767,439.257z"/>
		<path fill-rule="evenodd" clip-rule="evenodd" fill="#FEFEFE" d="M1272.324,557.692c-5.968-7.106-10.563-14.802-15.585-22.182
			c-16.701-24.564-33.269-49.211-49.943-73.799c-1.74-2.561-2.592-5.107-1.133-7.969c1.464-2.854,4.052-3.8,7.125-3.798
			c39.582,0.007,79.163,0.007,118.749,0c3.143,0,5.862,0.852,7.382,3.887c1.464,2.92,0.499,5.442-1.213,7.968
			c-20.366,30.066-40.693,60.161-61.05,90.227C1275.402,553.877,1273.943,555.584,1272.324,557.692z"/>
		<path fill-rule="evenodd" clip-rule="evenodd" fill="#2E95D9" d="M1349.482,440.3c-43.635,0-87.277,0-130.91,0
			c0-0.095,0-0.197,0-0.298c43.676,0,87.358,0,131.038,0C1349.567,440.103,1349.529,440.205,1349.482,440.3z"/>
		<path fill-rule="evenodd" clip-rule="evenodd" fill="#2B94D9" d="M1212.453,449.09c39.813,0,79.632,0,119.445,0
			c0,0.095,0,0.192,0,0.284c-39.841,0-79.685,0-119.526,0C1212.399,449.282,1212.429,449.185,1212.453,449.09z"/>
	</g>
	<g>
		<path fill-rule="evenodd" clip-rule="evenodd" fill="#3597DA" d="M589.81,593.156c-21.416,0-42.834-0.002-64.254,0.018
			c-0.61,0-0.694-0.166-0.694-0.725c0.014-42.839,0.014-85.673-0.004-128.506c0-0.61,0.17-0.696,0.725-0.696
			c42.836,0.018,85.674,0.018,128.509-0.004c0.61,0,0.698,0.172,0.696,0.727c-0.013,42.836-0.013,85.672,0.004,128.508
			c0,0.609-0.174,0.696-0.727,0.696C632.646,593.154,611.228,593.156,589.81,593.156z"/>
		<path fill-rule="evenodd" clip-rule="evenodd" fill="#FEFEFE" d="M592.926,554.681c-5.333,0-10.671-0.01-16.003,0.012
			c-0.831,0.001-1.547-0.146-1.972-0.934c-0.425-0.789-0.134-1.455,0.328-2.144c7.458-11.192,14.809-22.462,22.392-33.563
			c2.918-4.282,1.612-12.038-5.318-13.892c-3.604-0.964-6.777,0.035-9.227,2.843c-2.429,2.778-2.976,6.031-1.595,9.457
			c0.65,1.612,1.862,2.958,2.811,4.426c0.98,1.517,1.958,3.036,2.997,4.502c0.693,0.98,0.675,1.839,0.002,2.837
			c-4.533,6.728-9.029,13.478-13.544,20.225c-0.814,1.225-1.631,2.445-2.457,3.658c-1.112,1.63-2.367,1.622-3.459,0.006
			c-3.06-4.523-6.215-8.989-9.166-13.585c-4.4-6.853-7.879-14.058-8.858-22.341c-1.331-11.307,1.626-21.114,9.273-29.587
			c3.772-4.181,7.887-7.879,12.98-10.313c15.185-7.267,29.534-5.6,42.813,4.557c5.193,3.97,9.374,8.98,12.252,14.939
			c2.641,5.479,3.64,11.285,3.256,17.349c-0.29,4.529-1.237,8.922-2.642,13.226c-0.873,2.663-2.44,4.995-3.723,7.458
			c-2.732,5.248-6.361,9.927-9.589,14.863c-1.103,1.677-2.263,3.316-3.374,4.993c-0.472,0.717-1.083,1.022-1.94,1.02
			C603.748,554.669,598.336,554.681,592.926,554.681z"/>
		<path fill-rule="evenodd" clip-rule="evenodd" fill="#FEFEFE" d="M590.03,584.658c-1.512-1.804-2.673-3.745-3.943-5.621
			c-4.227-6.208-8.422-12.451-12.642-18.675c-0.44-0.647-0.658-1.293-0.287-2.012c0.371-0.726,1.025-0.965,1.803-0.964
			c10.02,0.002,20.039,0.002,30.057,0c0.795,0,1.484,0.213,1.869,0.981c0.37,0.742,0.127,1.379-0.308,2.021
			c-5.154,7.603-10.3,15.224-15.454,22.834C590.81,583.693,590.439,584.121,590.03,584.658z"/>
		<path fill-rule="evenodd" clip-rule="evenodd" fill="#2E95D9" d="M609.56,554.941c-11.047,0-22.09,0-33.137,0
			c0-0.021,0-0.045,0-0.074c11.057,0,22.115,0,33.17,0C609.579,554.896,609.571,554.92,609.56,554.941z"/>
		<path fill-rule="evenodd" clip-rule="evenodd" fill="#2B94D9" d="M574.877,557.169c10.078,0,20.157,0,30.231,0
			c0,0.021,0,0.052,0,0.072c-10.084,0-20.17,0-30.255,0C574.863,557.221,574.872,557.19,574.877,557.169z"/>
	</g>
	<g>
		<path fill-rule="evenodd" clip-rule="evenodd" fill="#3597DA" d="M454.706,591.612c-10.338,0-20.69-0.001-31.038,0.011
			c-0.295,0-0.337-0.081-0.337-0.352c0.006-20.7,0.006-41.398,0-62.095c0-0.297,0.08-0.341,0.352-0.341
			c20.693,0.01,41.396,0.01,62.095-0.002c0.295,0,0.339,0.084,0.339,0.354c-0.008,20.699-0.008,41.398,0.002,62.099
			c0,0.294-0.088,0.337-0.352,0.337C475.417,591.611,465.067,591.612,454.706,591.612z"/>
		<path fill-rule="evenodd" clip-rule="evenodd" fill="#FEFEFE" d="M456.222,573.021c-2.574,0-5.154-0.005-7.73,0.005
			c-0.4,0-0.75-0.07-0.955-0.451c-0.205-0.38-0.064-0.701,0.158-1.033c3.604-5.411,7.158-10.855,10.819-16.22
			c1.409-2.07,0.778-5.819-2.569-6.714c-1.738-0.463-3.274,0.02-4.457,1.376c-1.176,1.344-1.438,2.912-0.773,4.567
			c0.314,0.776,0.903,1.428,1.359,2.139c0.473,0.733,0.947,1.47,1.448,2.175c0.339,0.475,0.333,0.89,0.002,1.382
			c-2.191,3.241-4.364,6.505-6.546,9.764c-0.393,0.591-0.783,1.18-1.188,1.766c-0.537,0.791-1.143,0.786-1.672,0.003
			c-1.479-2.187-3.004-4.343-4.432-6.562c-2.121-3.315-3.805-6.796-4.277-10.798c-0.642-5.465,0.788-10.203,4.484-14.299
			c1.82-2.02,3.811-3.805,6.269-4.982c7.341-3.51,14.274-2.708,20.688,2.201c2.512,1.921,4.53,4.34,5.924,7.221
			c1.275,2.651,1.758,5.456,1.57,8.382c-0.138,2.191-0.598,4.313-1.275,6.395c-0.422,1.285-1.18,2.411-1.798,3.603
			c-1.321,2.535-3.075,4.798-4.632,7.181c-0.535,0.812-1.094,1.604-1.633,2.416c-0.227,0.344-0.527,0.491-0.938,0.49
			C461.454,573.016,458.835,573.021,456.222,573.021z"/>
		<path fill-rule="evenodd" clip-rule="evenodd" fill="#FEFEFE" d="M454.827,587.506c-0.731-0.871-1.296-1.809-1.91-2.715
			c-2.045-3.002-4.067-6.021-6.107-9.025c-0.213-0.312-0.32-0.624-0.143-0.972c0.184-0.349,0.501-0.469,0.874-0.468
			c4.842,0.001,9.683,0.001,14.524,0c0.385,0,0.719,0.106,0.904,0.477c0.178,0.359,0.061,0.667-0.153,0.978
			c-2.486,3.67-4.977,7.353-7.469,11.034C455.198,587.038,455.021,587.249,454.827,587.506z"/>
		<path fill-rule="evenodd" clip-rule="evenodd" fill="#2E95D9" d="M464.26,573.146c-5.341,0-10.671,0-16.011,0
			c0-0.008,0-0.021,0-0.032c5.342,0,10.682,0,16.025,0C464.271,573.124,464.263,573.138,464.26,573.146z"/>
		<path fill-rule="evenodd" clip-rule="evenodd" fill="#2B94D9" d="M447.5,574.225c4.87,0,9.743,0,14.612,0c0,0.009,0,0.023,0,0.035
			c-4.873,0-9.75,0-14.625,0C447.492,574.248,447.498,574.233,447.5,574.225z"/>
	</g>
	<g>
		<path fill-rule="evenodd" clip-rule="evenodd" fill="#3597DA" d="M361.717,591.614c-8.058,0-16.126-0.001-24.191,0.009
			c-0.23,0-0.263-0.063-0.263-0.274c0.004-16.134,0.004-32.267,0-48.397c0-0.231,0.063-0.266,0.274-0.266
			c16.128,0.008,32.265,0.008,48.397-0.001c0.23,0,0.264,0.065,0.264,0.275c-0.006,16.133-0.006,32.267,0.001,48.4
			c0,0.229-0.068,0.263-0.274,0.263C377.859,591.613,369.792,591.614,361.717,591.614z"/>
		<path fill-rule="evenodd" clip-rule="evenodd" fill="#FEFEFE" d="M362.898,577.124c-2.006,0-4.018-0.003-6.025,0.004
			c-0.312,0-0.584-0.055-0.744-0.352c-0.16-0.296-0.05-0.546,0.123-0.805c2.809-4.218,5.579-8.461,8.433-12.643
			c1.099-1.613,0.607-4.535-2.002-5.232c-1.355-0.36-2.552,0.015-3.474,1.072c-0.917,1.048-1.121,2.27-0.603,3.56
			c0.245,0.605,0.704,1.113,1.06,1.667c0.368,0.572,0.738,1.146,1.129,1.695c0.264,0.37,0.259,0.693,0.001,1.077
			c-1.708,2.526-3.402,5.07-5.102,7.609c-0.306,0.461-0.61,0.92-0.925,1.377c-0.419,0.616-0.891,0.612-1.303,0.002
			c-1.152-1.704-2.341-3.385-3.454-5.114c-1.653-2.584-2.965-5.297-3.334-8.416c-0.5-4.259,0.614-7.952,3.495-11.145
			c1.419-1.574,2.97-2.966,4.886-3.883c5.722-2.736,11.126-2.111,16.125,1.715c1.958,1.497,3.531,3.383,4.617,5.628
			c0.994,2.066,1.37,4.253,1.224,6.533c-0.107,1.708-0.466,3.362-0.994,4.984c-0.329,1.001-0.92,1.879-1.401,2.808
			c-1.03,1.976-2.397,3.739-3.61,5.597c-0.417,0.633-0.853,1.25-1.272,1.883c-0.177,0.268-0.411,0.383-0.73,0.382
			C366.976,577.12,364.935,577.124,362.898,577.124z"/>
		<path fill-rule="evenodd" clip-rule="evenodd" fill="#FEFEFE" d="M361.811,588.414c-0.57-0.68-1.01-1.41-1.489-2.116
			c-1.594-2.34-3.17-4.692-4.76-7.034c-0.166-0.243-0.25-0.486-0.111-0.758c0.143-0.271,0.391-0.365,0.681-0.364
			c3.774,0.001,7.547,0.001,11.321,0c0.3,0,0.56,0.083,0.705,0.371c0.139,0.28,0.047,0.52-0.119,0.762
			c-1.938,2.86-3.879,5.73-5.821,8.601C362.1,588.049,361.961,588.214,361.811,588.414z"/>
		<path fill-rule="evenodd" clip-rule="evenodd" fill="#2E95D9" d="M369.163,577.221c-4.163,0-8.317,0-12.479,0
			c0-0.006,0-0.017,0-0.024c4.163,0,8.325,0,12.49,0C369.171,577.204,369.165,577.215,369.163,577.221z"/>
		<path fill-rule="evenodd" clip-rule="evenodd" fill="#2B94D9" d="M356.1,578.063c3.796,0,7.594,0,11.389,0
			c0,0.007,0,0.018,0,0.027c-3.798,0-7.6,0-11.399,0C356.094,578.08,356.099,578.069,356.1,578.063z"/>
	</g>
	<g>
		<path fill-rule="evenodd" clip-rule="evenodd" fill="#3597DA" d="M288.597,591.617c-5.293,0-10.593-0.001-15.89,0.006
			c-0.151,0-0.172-0.042-0.172-0.181c0.003-10.597,0.003-21.193,0-31.789c0-0.151,0.041-0.174,0.18-0.174
			c10.594,0.005,21.193,0.005,31.789-0.001c0.151,0,0.173,0.043,0.173,0.181c-0.004,10.597-0.004,21.194,0.001,31.791
			c0,0.15-0.045,0.173-0.18,0.173C299.199,591.617,293.901,591.617,288.597,591.617z"/>
		<path fill-rule="evenodd" clip-rule="evenodd" fill="#FEFEFE" d="M289.372,582.1c-1.317,0-2.639-0.002-3.958,0.003
			c-0.205,0-0.384-0.036-0.489-0.231c-0.105-0.194-0.033-0.358,0.081-0.528c1.845-2.771,3.665-5.558,5.539-8.304
			c0.722-1.061,0.399-2.979-1.315-3.438c-0.89-0.236-1.676,0.01-2.281,0.705c-0.602,0.688-0.736,1.49-0.396,2.338
			c0.161,0.397,0.462,0.73,0.696,1.095c0.242,0.376,0.485,0.752,0.742,1.113c0.173,0.243,0.17,0.456,0,0.708
			c-1.122,1.659-2.234,3.33-3.351,4.998c-0.201,0.303-0.401,0.604-0.607,0.904c-0.275,0.404-0.585,0.402-0.856,0.001
			c-0.757-1.119-1.538-2.224-2.269-3.359c-1.086-1.697-1.948-3.479-2.19-5.527c-0.329-2.798,0.403-5.224,2.296-7.32
			c0.932-1.034,1.951-1.948,3.209-2.551c3.758-1.797,7.308-1.387,10.591,1.127c1.286,0.983,2.319,2.222,3.033,3.696
			c0.653,1.357,0.9,2.794,0.804,4.291c-0.07,1.122-0.306,2.209-0.652,3.274c-0.216,0.657-0.604,1.233-0.92,1.844
			c-0.677,1.298-1.575,2.456-2.372,3.676c-0.274,0.416-0.56,0.821-0.836,1.237c-0.116,0.176-0.27,0.251-0.479,0.251
			C292.051,582.097,290.71,582.1,289.372,582.1z"/>
		<path fill-rule="evenodd" clip-rule="evenodd" fill="#FEFEFE" d="M288.658,589.516c-0.375-0.447-0.664-0.927-0.978-1.391
			c-1.047-1.537-2.083-3.082-3.127-4.62c-0.109-0.159-0.164-0.319-0.073-0.498c0.094-0.178,0.257-0.239,0.448-0.239
			c2.479,0.001,4.957,0.001,7.436,0c0.197,0,0.368,0.055,0.463,0.244c0.091,0.184,0.031,0.342-0.078,0.5
			c-1.273,1.879-2.548,3.765-3.824,5.649C288.848,589.275,288.757,589.384,288.658,589.516z"/>
		<path fill-rule="evenodd" clip-rule="evenodd" fill="#2E95D9" d="M293.487,582.163c-2.734,0-5.463,0-8.196,0
			c0-0.004,0-0.011,0-0.016c2.734,0,5.468,0,8.204,0C293.493,582.152,293.489,582.159,293.487,582.163z"/>
		<path fill-rule="evenodd" clip-rule="evenodd" fill="#2B94D9" d="M284.907,582.716c2.493,0,4.988,0,7.481,0
			c0,0.005,0,0.012,0,0.019c-2.495,0-4.992,0-7.487,0C284.903,582.728,284.906,582.721,284.907,582.716z"/>
	</g>
	<g>
		<path fill-rule="evenodd" clip-rule="evenodd" fill="#3597DA" d="M229.397,591.618c-4.123,0-8.25-0.001-12.376,0.005
			c-0.118,0-0.134-0.033-0.134-0.141c0.002-8.253,0.002-16.506,0-24.759c0-0.117,0.032-0.135,0.14-0.135
			c8.25,0.004,16.506,0.004,24.758-0.001c0.118,0,0.135,0.033,0.135,0.141c-0.003,8.253-0.003,16.507,0,24.76
			c0,0.117-0.035,0.135-0.14,0.135C237.655,591.618,233.528,591.618,229.397,591.618z"/>
		<path fill-rule="evenodd" clip-rule="evenodd" fill="#FEFEFE" d="M230.001,584.206c-1.026,0-2.055-0.002-3.082,0.002
			c-0.16,0-0.299-0.028-0.381-0.18c-0.082-0.151-0.026-0.279,0.063-0.412c1.437-2.157,2.854-4.328,4.313-6.467
			c0.562-0.826,0.311-2.32-1.024-2.678c-0.693-0.184-1.306,0.008-1.777,0.55c-0.469,0.535-0.573,1.16-0.309,1.82
			c0.125,0.31,0.36,0.569,0.542,0.853c0.188,0.293,0.378,0.586,0.578,0.867c0.135,0.189,0.132,0.355,0,0.552
			c-0.874,1.292-1.74,2.594-2.61,3.893c-0.157,0.235-0.313,0.47-0.473,0.704c-0.214,0.314-0.456,0.313-0.667,0.001
			c-0.589-0.872-1.198-1.732-1.767-2.616c-0.846-1.322-1.517-2.71-1.706-4.306c-0.256-2.179,0.314-4.068,1.789-5.701
			c0.726-0.805,1.519-1.518,2.499-1.986c2.927-1.399,5.692-1.08,8.249,0.878c1.001,0.766,1.806,1.73,2.362,2.879
			c0.509,1.057,0.701,2.176,0.626,3.342c-0.055,0.874-0.238,1.72-0.508,2.55c-0.168,0.512-0.471,0.961-0.717,1.437
			c-0.527,1.011-1.226,1.912-1.847,2.862c-0.213,0.324-0.437,0.64-0.651,0.964c-0.09,0.137-0.21,0.195-0.373,0.195
			C232.087,584.203,231.043,584.206,230.001,584.206z"/>
		<path fill-rule="evenodd" clip-rule="evenodd" fill="#FEFEFE" d="M229.445,589.981c-0.292-0.348-0.517-0.722-0.762-1.083
			c-0.815-1.197-1.622-2.4-2.435-3.598c-0.085-0.124-0.128-0.249-0.057-0.389c0.073-0.138,0.2-0.186,0.349-0.186
			c1.931,0,3.861,0,5.791,0c0.154,0,0.287,0.042,0.361,0.189c0.071,0.144,0.024,0.267-0.061,0.39
			c-0.991,1.464-1.984,2.932-2.978,4.4C229.593,589.795,229.522,589.879,229.445,589.981z"/>
		<path fill-rule="evenodd" clip-rule="evenodd" fill="#2E95D9" d="M233.206,584.255c-2.129,0-4.254,0-6.383,0
			c0-0.003,0-0.008,0-0.012c2.129,0,4.259,0,6.389,0C233.21,584.247,233.208,584.252,233.206,584.255z"/>
		<path fill-rule="evenodd" clip-rule="evenodd" fill="#2B94D9" d="M226.524,584.686c1.942,0,3.885,0,5.826,0
			c0,0.004,0,0.01,0,0.015c-1.943,0-3.888,0-5.831,0C226.521,584.695,226.523,584.689,226.524,584.686z"/>
	</g>
	<g>
		<path fill-rule="evenodd" clip-rule="evenodd" fill="#3597DA" d="M179.467,591.619c-3.21,0-6.425-0.001-9.639,0.004
			c-0.092,0-0.104-0.025-0.104-0.109c0.002-6.428,0.002-12.855,0-19.283c0-0.091,0.025-0.105,0.109-0.105
			c6.425,0.004,12.855,0.004,19.282,0c0.092,0,0.105,0.025,0.105,0.109c-0.003,6.428-0.003,12.855,0,19.283
			c0,0.092-0.027,0.105-0.109,0.105C185.898,591.619,182.684,591.619,179.467,591.619z"/>
		<path fill-rule="evenodd" clip-rule="evenodd" fill="#FEFEFE" d="M179.937,585.847c-0.799,0-1.6-0.002-2.4,0.001
			c-0.125,0-0.233-0.021-0.296-0.14s-0.021-0.218,0.049-0.321c1.119-1.68,2.223-3.371,3.359-5.036
			c0.438-0.644,0.242-1.808-0.798-2.086c-0.54-0.143-1.017,0.007-1.384,0.429c-0.365,0.417-0.446,0.903-0.24,1.418
			c0.098,0.24,0.28,0.443,0.422,0.663c0.147,0.229,0.294,0.457,0.45,0.676c0.105,0.147,0.103,0.276,0,0.43
			c-0.68,1.007-1.355,2.021-2.033,3.032c-0.122,0.183-0.243,0.365-0.368,0.548c-0.167,0.245-0.355,0.244-0.52,0.001
			c-0.459-0.68-0.933-1.35-1.376-2.038c-0.659-1.029-1.182-2.11-1.329-3.353c-0.199-1.697,0.245-3.169,1.393-4.44
			c0.565-0.627,1.183-1.183,1.946-1.548c2.28-1.09,4.433-0.841,6.424,0.685c0.78,0.596,1.407,1.348,1.84,2.242
			c0.396,0.822,0.545,1.694,0.487,2.603c-0.042,0.681-0.185,1.339-0.396,1.985c-0.131,0.398-0.367,0.749-0.559,1.119
			c-0.41,0.787-0.955,1.489-1.438,2.229c-0.166,0.252-0.34,0.498-0.507,0.75c-0.07,0.107-0.163,0.152-0.291,0.152
			C181.562,585.844,180.749,585.847,179.937,585.847z"/>
		<path fill-rule="evenodd" clip-rule="evenodd" fill="#FEFEFE" d="M179.504,590.345c-0.228-0.271-0.403-0.563-0.593-0.844
			c-0.635-0.933-1.263-1.869-1.896-2.802c-0.066-0.097-0.1-0.194-0.044-0.303c0.057-0.107,0.156-0.145,0.271-0.145
			c1.503,0,3.007,0,4.51,0c0.12,0,0.224,0.032,0.281,0.147c0.055,0.111,0.019,0.208-0.047,0.304
			c-0.772,1.14-1.545,2.283-2.319,3.427C179.62,590.199,179.564,590.265,179.504,590.345z"/>
		<path fill-rule="evenodd" clip-rule="evenodd" fill="#2E95D9" d="M182.433,585.885c-1.658,0-3.313,0-4.971,0
			c0-0.003,0-0.007,0-0.01c1.658,0,3.317,0,4.976,0C182.437,585.878,182.435,585.882,182.433,585.885z"/>
		<path fill-rule="evenodd" clip-rule="evenodd" fill="#2B94D9" d="M177.229,586.22c1.512,0,3.025,0,4.538,0
			c0,0.003,0,0.008,0,0.012c-1.514,0-3.028,0-4.542,0C177.227,586.228,177.228,586.223,177.229,586.22z"/>
	</g>
	<g>
		<path fill-rule="evenodd" clip-rule="evenodd" fill="#3597DA" d="M136.707,591.62c-2.74,0-5.483-0.001-8.226,0.003
			c-0.078,0-0.089-0.021-0.089-0.094c0.001-5.485,0.001-10.971,0-16.456c0-0.077,0.021-0.09,0.093-0.09
			c5.483,0.003,10.971,0.003,16.456,0c0.079,0,0.09,0.021,0.09,0.094c-0.002,5.484-0.002,10.971,0,16.456
			c0,0.078-0.023,0.09-0.093,0.09C142.195,591.62,139.452,591.62,136.707,591.62z"/>
		<path fill-rule="evenodd" clip-rule="evenodd" fill="#FEFEFE" d="M137.108,586.693c-0.682,0-1.366-0.001-2.049,0.001
			c-0.106,0-0.199-0.019-0.252-0.119c-0.055-0.102-0.018-0.186,0.042-0.274c0.955-1.434,1.897-2.877,2.867-4.297
			c0.374-0.551,0.207-1.543-0.681-1.78c-0.46-0.122-0.869,0.005-1.181,0.365c-0.312,0.355-0.381,0.771-0.205,1.21
			c0.083,0.205,0.239,0.379,0.36,0.565c0.125,0.196,0.251,0.391,0.384,0.577c0.089,0.126,0.088,0.235,0,0.367
			c-0.58,0.858-1.156,1.724-1.734,2.587c-0.104,0.156-0.208,0.312-0.314,0.468c-0.143,0.209-0.303,0.209-0.443,0.001
			c-0.392-0.58-0.796-1.151-1.174-1.739c-0.563-0.878-1.008-1.801-1.134-2.861c-0.17-1.448,0.209-2.704,1.188-3.789
			c0.482-0.535,1.01-1.009,1.661-1.32c1.946-0.931,3.784-0.719,5.483,0.584c0.666,0.508,1.2,1.149,1.57,1.913
			c0.338,0.702,0.465,1.445,0.416,2.222c-0.036,0.58-0.158,1.142-0.337,1.693c-0.112,0.34-0.313,0.64-0.477,0.955
			c-0.35,0.672-0.815,1.271-1.228,1.902c-0.142,0.215-0.29,0.426-0.433,0.641c-0.06,0.092-0.139,0.13-0.248,0.13
			C138.495,586.691,137.8,586.693,137.108,586.693z"/>
		<path fill-rule="evenodd" clip-rule="evenodd" fill="#FEFEFE" d="M136.739,590.532c-0.194-0.231-0.344-0.48-0.506-0.72
			c-0.542-0.796-1.078-1.596-1.619-2.392c-0.057-0.083-0.085-0.165-0.038-0.259c0.048-0.092,0.133-0.123,0.232-0.123
			c1.283,0,2.566,0,3.849,0c0.102,0,0.19,0.027,0.239,0.126c0.047,0.096,0.016,0.177-0.041,0.259
			c-0.658,0.974-1.319,1.949-1.979,2.925C136.837,590.408,136.79,590.464,136.739,590.532z"/>
		<path fill-rule="evenodd" clip-rule="evenodd" fill="#2E95D9" d="M139.238,586.726c-1.416,0-2.828,0-4.243,0
			c0-0.002,0-0.005,0-0.008c1.416,0,2.831,0,4.247,0C139.241,586.721,139.239,586.724,139.238,586.726z"/>
		<path fill-rule="evenodd" clip-rule="evenodd" fill="#2B94D9" d="M134.797,587.012c1.291,0,2.582,0,3.873,0
			c0,0.003,0,0.006,0,0.01c-1.292,0-2.584,0-3.876,0C134.795,587.018,134.796,587.015,134.797,587.012z"/>
	</g>
	<text transform="matrix(1 0 0 1 114.9761 626.0273)" font-family="'MyriadPro-Regular'" font-size="12">16x16</text>
	<text transform="matrix(1 0 0 1 156.9761 626.0273)" font-family="'MyriadPro-Regular'" font-size="12">20x20</text>
	<text transform="matrix(1 0 0 1 207.9761 626.0273)" font-family="'MyriadPro-Regular'" font-size="12">24x24</text>
	<text transform="matrix(1 0 0 1 270.98 626.0273)" font-family="'MyriadPro-Regular'" font-size="12">32x32</text>
	<text transform="matrix(1 0 0 1 343.0376 626.0273)" font-family="'MyriadPro-Regular'" font-size="12">48x48</text>
	<text transform="matrix(1 0 0 1 434.1104 626.0273)" font-family="'MyriadPro-Regular'" font-size="12">64x64</text>
	<text transform="matrix(1 0 0 1 564.2139 626.0273)" font-family="'MyriadPro-Regular'" font-size="12">128x128</text>
	<text transform="matrix(1 0 0 1 803.4053 626.0273)" font-family="'MyriadPro-Regular'" font-size="12">256x256</text>
	<text transform="matrix(1 0 0 1 1244.7578 626.0273)" font-family="'MyriadPro-Regular'" font-size="12">512x512</text>
	<g>
		<path fill="#3597DA" d="M142.604,219.031l1.992,7.658c0.436,1.681,0.84,3.237,1.121,4.793h0.093
			c0.342-1.525,0.84-3.144,1.338-4.793l2.459-7.658h2.303l2.335,7.533c0.56,1.806,0.996,3.393,1.338,4.918h0.093
			c0.249-1.525,0.654-3.113,1.152-4.887l2.148-7.564h2.708l-4.856,15.066h-2.49l-2.304-7.19c-0.529-1.681-0.965-3.175-1.338-4.949
			h-0.063c-0.373,1.805-0.84,3.361-1.369,4.98l-2.428,7.159h-2.49l-4.544-15.066H142.604z"/>
		<path fill="#3597DA" d="M162.554,211.996h2.739v9.4h0.062c0.436-0.778,1.121-1.463,1.961-1.93
			c0.809-0.467,1.774-0.778,2.801-0.778c2.023,0,5.261,1.245,5.261,6.443v8.965h-2.739v-8.653c0-2.428-0.903-4.482-3.486-4.482
			c-1.774,0-3.175,1.245-3.673,2.739c-0.155,0.373-0.187,0.778-0.187,1.307v9.089h-2.739V211.996z"/>
		<path fill="#3597DA" d="M179.486,227.062c0.063,3.705,2.428,5.229,5.167,5.229c1.961,0,3.144-0.342,4.171-0.778l0.467,1.961
			c-0.965,0.436-2.615,0.965-5.012,0.965c-4.638,0-7.408-3.082-7.408-7.626c0-4.544,2.677-8.124,7.066-8.124
			c4.918,0,6.226,4.327,6.226,7.097c0,0.56-0.063,0.996-0.093,1.276H179.486z M187.517,225.101c0.031-1.743-0.716-4.451-3.798-4.451
			c-2.77,0-3.984,2.553-4.202,4.451H187.517z"/>
		<path fill="#3597DA" d="M191.687,223.731c0-1.774-0.031-3.299-0.125-4.7h2.397l0.093,2.957h0.125
			c0.685-2.023,2.334-3.299,4.171-3.299c0.312,0,0.529,0.031,0.778,0.093v2.583c-0.28-0.062-0.561-0.093-0.934-0.093
			c-1.93,0-3.3,1.463-3.673,3.518c-0.062,0.374-0.125,0.809-0.125,1.276v8.031h-2.708V223.731z"/>
		<path fill="#3597DA" d="M201.211,227.062c0.062,3.705,2.428,5.229,5.167,5.229c1.961,0,3.144-0.342,4.171-0.778l0.467,1.961
			c-0.965,0.436-2.615,0.965-5.012,0.965c-4.638,0-7.409-3.082-7.409-7.626c0-4.544,2.677-8.124,7.066-8.124
			c4.918,0,6.226,4.327,6.226,7.097c0,0.56-0.063,0.996-0.094,1.276H201.211z M209.242,225.101c0.031-1.743-0.716-4.451-3.797-4.451
			c-2.771,0-3.984,2.553-4.203,4.451H209.242z"/>
		<path fill="#FF00A6" d="M216.462,214.797c0.031,0.934-0.654,1.681-1.743,1.681c-0.965,0-1.65-0.747-1.65-1.681
			c0-0.965,0.716-1.712,1.712-1.712C215.808,213.085,216.462,213.833,216.462,214.797z M213.412,234.097v-15.066h2.739v15.066
			H213.412z"/>
		<path fill="#FF00A6" d="M218.454,231.295c0.809,0.529,2.241,1.09,3.611,1.09c1.992,0,2.926-0.996,2.926-2.241
			c0-1.308-0.778-2.023-2.801-2.771c-2.708-0.965-3.984-2.459-3.984-4.265c0-2.428,1.961-4.42,5.198-4.42
			c1.525,0,2.864,0.436,3.704,0.934l-0.685,1.992c-0.592-0.374-1.681-0.872-3.082-0.872c-1.618,0-2.521,0.934-2.521,2.055
			c0,1.245,0.903,1.805,2.864,2.552c2.615,0.996,3.953,2.304,3.953,4.545c0,2.646-2.055,4.544-5.634,4.544
			c-1.65,0-3.175-0.436-4.233-1.058L218.454,231.295z"/>
	</g>
	<g>
		<path fill="#3597DA" d="M147.715,271.097l-8.134-25.382h6.289l3.088,10.732c0.866,3.013,1.657,5.913,2.26,9.076h0.113
			c0.64-3.051,1.431-6.063,2.297-8.963l3.239-10.846h6.101l-8.549,25.382H147.715z"/>
		<path fill="#3597DA" d="M178.521,260.364h-9.339v6.025h10.432v4.708h-16.193v-25.382h15.666v4.707h-9.904v5.272h9.339V260.364z"/>
		<path fill="#3597DA" d="M199.912,270.381c-1.054,0.527-3.427,1.129-6.515,1.129c-8.774,0-13.293-5.498-13.293-12.729
			c0-8.662,6.176-13.482,13.858-13.482c2.975,0,5.235,0.603,6.251,1.13l-1.167,4.557c-1.167-0.489-2.787-0.941-4.82-0.941
			c-4.557,0-8.097,2.749-8.097,8.398c0,5.084,3.013,8.285,8.134,8.285c1.732,0,3.653-0.377,4.783-0.829L199.912,270.381z"/>
		<path fill="#3597DA" d="M206.842,250.535h-6.816v-4.82h19.507v4.82h-6.929v20.562h-5.762V250.535z"/>
		<path fill="#3597DA" d="M242.467,258.142c0,8.323-5.046,13.369-12.465,13.369c-7.532,0-11.938-5.687-11.938-12.917
			c0-7.607,4.858-13.293,12.352-13.293C238.212,245.3,242.467,251.138,242.467,258.142z M224.128,258.481
			c0,4.971,2.334,8.473,6.176,8.473c3.879,0,6.101-3.69,6.101-8.624c0-4.557-2.184-8.473-6.138-8.473
			C226.387,249.857,224.128,253.548,224.128,258.481z"/>
		<path fill="#3597DA" d="M243.975,246.054c1.845-0.301,4.594-0.527,7.645-0.527c3.766,0,6.402,0.565,8.209,1.996
			c1.506,1.205,2.335,2.975,2.335,5.31c0,3.239-2.297,5.461-4.481,6.251v0.113c1.77,0.716,2.749,2.41,3.389,4.745
			c0.791,2.862,1.582,6.176,2.071,7.155h-5.875c-0.414-0.753-1.017-2.787-1.77-5.913c-0.678-3.163-1.77-4.029-4.105-4.067h-1.732
			v9.979h-5.687V246.054z M249.662,256.975h2.26c2.862,0,4.557-1.431,4.557-3.653c0-2.335-1.582-3.502-4.218-3.54
			c-1.394,0-2.184,0.113-2.599,0.188V256.975z"/>
		<path fill="#3597DA" d="M264.048,245.715h5.762v20.562h10.093v4.82h-15.854V245.715z"/>
		<path fill="#3597DA" d="M302.837,258.142c0,8.323-5.046,13.369-12.465,13.369c-7.532,0-11.938-5.687-11.938-12.917
			c0-7.607,4.858-13.293,12.352-13.293C298.582,245.3,302.837,251.138,302.837,258.142z M284.498,258.481
			c0,4.971,2.334,8.473,6.176,8.473c3.879,0,6.101-3.69,6.101-8.624c0-4.557-2.184-8.473-6.138-8.473
			C286.757,249.857,284.498,253.548,284.498,258.481z"/>
		<path fill="#3597DA" d="M325.547,269.929c-1.77,0.603-5.122,1.431-8.473,1.431c-4.632,0-7.984-1.167-10.319-3.427
			c-2.334-2.185-3.615-5.499-3.578-9.227c0.038-8.436,6.176-13.256,14.499-13.256c3.276,0,5.799,0.64,7.042,1.243l-1.205,4.594
			c-1.394-0.603-3.126-1.092-5.913-1.092c-4.783,0-8.398,2.711-8.398,8.209c0,5.234,3.276,8.323,7.984,8.323
			c1.318,0,2.373-0.151,2.824-0.377v-5.31h-3.917v-4.481h9.453V269.929z"/>
		<path fill="#3597DA" d="M351.005,258.142c0,8.323-5.046,13.369-12.465,13.369c-7.532,0-11.938-5.687-11.938-12.917
			c0-7.607,4.858-13.293,12.352-13.293C346.75,245.3,351.005,251.138,351.005,258.142z M332.666,258.481
			c0,4.971,2.334,8.473,6.176,8.473c3.879,0,6.101-3.69,6.101-8.624c0-4.557-2.184-8.473-6.138-8.473
			C334.925,249.857,332.666,253.548,332.666,258.481z"/>
	</g>
	<rect x="122.418" y="220.056" fill-rule="evenodd" clip-rule="evenodd" fill="#FF00A6" width="11.946" height="11.946"/>
</g>
<g id="Layer_3">
</g>
</svg>
