<?xml version="1.0" encoding="utf-8"?>
<!-- Generator: Adobe Illustrator 19.2.1, SVG Export Plug-In . SVG Version: 6.00 Build 0)  -->
<svg version="1.1" id="Capa_1" xmlns="http://www.w3.org/2000/svg" xmlns:xlink="http://www.w3.org/1999/xlink" x="0px" y="0px"
	 viewBox="0 0 52 67.8" style="enable-background:new 0 0 52 67.8;" xml:space="preserve">
<style type="text/css">
	.st0{fill:#2CB77F;}
	.st1{fill:#E05F53;}
	.st2{fill:#FA6A5D;}
	.st3{fill:#C3996D;}
	.st4{fill:#4D4D4D;}
</style>
<path class="st0" d="M38.9,21.2L38.9,21.2c-7.1-7.1-18.6-7.1-25.7,0l0,0C6.8,27.6,6,39.6,11.5,46.8l14.5,21l14.5-21
	C46,39.6,45.2,27.6,38.9,21.2z M26.2,39.8c-3.3,0-6-2.7-6-6s2.7-6,6-6s6,2.7,6,6S29.5,39.8,26.2,39.8z"/>
<g>
	<g>
		<g>
			<path class="st1" d="M36.1,43.6h-20c-1.3,0-2.5-0.8-3-2L8.3,27.2C8,26.7,8.4,26.1,9,26.1h34.2c0.6,0,1,0.6,0.8,1.1l-4.8,14.4
				C38.7,42.8,37.5,43.6,36.1,43.6z"/>
		</g>
		<g>
			<g>
				<polygon class="st2" points="27.3,26.1 11.7,37.4 13.1,41.5 34.4,26.1 				"/>
			</g>
			<g>
				<path class="st2" d="M37.7,26.1L14.3,43c0.5,0.4,1.2,0.6,1.9,0.6H17l24.3-17.5C41.3,26.1,37.7,26.1,37.7,26.1z"/>
			</g>
		</g>
		<g>
			<path class="st3" d="M35.6,30.8c-0.8,0-1.4-0.6-1.4-1.4v-6.5c0-4.4-3.6-8-8-8s-8,3.6-8,8v6.5c0,0.8-0.6,1.4-1.4,1.4
				c-0.8,0-1.4-0.6-1.4-1.4v-6.5c0-6,4.9-10.9,10.9-10.9s10.9,4.9,10.9,10.9v6.5C37.1,30.1,36.4,30.8,35.6,30.8z"/>
		</g>
		<g>
			<path class="st4" d="M18.8,29h-4.3c-0.3,0-0.6-0.3-0.6-0.6l0,0c0-0.3,0.3-0.6,0.6-0.6h4.3c0.3,0,0.6,0.3,0.6,0.6l0,0
				C19.4,28.7,19.1,29,18.8,29z"/>
		</g>
		<g>
			<path class="st4" d="M37.8,29h-4.3c-0.3,0-0.6-0.3-0.6-0.6l0,0c0-0.3,0.3-0.6,0.6-0.6h4.3c0.3,0,0.6,0.3,0.6,0.6l0,0
				C38.4,28.7,38.1,29,37.8,29z"/>
		</g>
	</g>
</g>
</svg>
