<?xml version="1.0" encoding="utf-8"?>
<!-- Generator: Adobe Illustrator 19.2.1, SVG Export Plug-In . SVG Version: 6.00 Build 0)  -->
<svg version="1.1" id="Capa_1" xmlns="http://www.w3.org/2000/svg" xmlns:xlink="http://www.w3.org/1999/xlink" x="0px" y="0px"
	 viewBox="0 0 52 67.8" style="enable-background:new 0 0 52 67.8;" xml:space="preserve">
<style type="text/css">
	.st0{fill:#F26868;}
	.st1{fill:#F6B47B;}
	.st2{fill:#6E4439;}
	.st3{fill:#5E342E;}
	.st4{fill:#F23F44;}
	.st5{fill:#FF4F4F;}
	.st6{fill:#E2A071;}
	.st7{fill:#FDC88E;}
	.st8{fill:#623F33;}
</style>
<rect x="17.3" y="28.4" class="st0" width="20.1" height="13.1"/>
<path class="st0" d="M38.9,21.2L38.9,21.2c-7.1-7.1-18.6-7.1-25.7,0l0,0C6.8,27.6,6,39.6,11.5,46.8l14.5,21l14.5-21
	C46,39.6,45.2,27.6,38.9,21.2z M26.2,39.8c-3.3,0-6-2.7-6-6s2.7-6,6-6s6,2.7,6,6S29.5,39.8,26.2,39.8z"/>
<g>
	<path class="st1" d="M40.1,43.6l-0.9-6.7c-0.2-1.4-1.2-2.7-2.5-3.2l-5.3-2c-0.6-0.2-1.1-0.8-1.1-1.5v-2.5l3.4-1.4
		c1.8-0.7,2.9-2.4,2.9-4.3v-0.8c1.3,0,2.4-1.1,2.4-2.4c0-1.3-1.1-2.4-2.4-2.4v-1.6c0-2.2-1.8-5.5-3.9-5.5H18.5
		c-2.2,0-3.9,3.3-3.9,5.5v1.6c-1.3,0-2.4,1.1-2.4,2.4c0,1.3,1.1,2.4,2.4,2.4V22c0,1.9,1.1,3.6,2.9,4.3l3.4,1.4v2.5
		c0,0.7-0.4,1.3-1.1,1.5l-5.3,2c-1.4,0.5-2.3,1.7-2.5,3.2L11,43.6c-0.2,1.4,0.9,2.7,2.3,2.7h24.4C39.2,46.3,40.3,45,40.1,43.6z"/>
	<path class="st2" d="M37.3,20.4h-1.6c0,0-0.7,2.1-0.8,4.7c0,1.5,0.4,3.1,0.8,4.7h1.6c0.4-1.6,0.8-3.2,0.8-4.7
		C38.1,22.5,37.3,20.4,37.3,20.4z"/>
	<path class="st3" d="M15.4,20.4h-1.6c0,0-0.7,2.1-0.8,4.7c0,1.5,0.4,3.1,0.8,4.7h1.6c0.4-1.6,0.8-3.2,0.8-4.7
		C16.1,22.5,15.4,20.4,15.4,20.4z"/>
	<g>
		<path class="st4" d="M14.2,15.3H9.9c-0.6,0-0.9,0.6-0.7,1.1l0.8,2c0.2,0.4,0.7,0.6,1.1,0.4l3.1-1.9V15.3z"/>
	</g>
	<g>
		<path class="st5" d="M14.2,15.3H9.9c-0.6,0-0.9-0.6-0.7-1.1l0.8-2c0.2-0.4,0.7-0.6,1.1-0.4l3.1,1.9V15.3z"/>
	</g>
	<g>
		<path class="st4" d="M36.9,15.3h4.3c0.6,0,0.9,0.6,0.7,1.1l-0.8,2C41,18.8,40.4,19,40,18.8l-3.1-1.9V15.3z"/>
	</g>
	<g>
		<path class="st5" d="M36.9,15.3h4.3c0.6,0,0.9-0.6,0.7-1.1l-0.8-2c-0.2-0.4-0.7-0.6-1.1-0.4l-3.1,1.9V15.3z"/>
	</g>
	<g>
		<path class="st6" d="M30.3,27.7l-9.4-2.1v4.6c0,0.6-0.3,1.1-0.8,1.3C26.7,32.7,30.3,27.7,30.3,27.7z"/>
	</g>
	<g>
		<path class="st7" d="M14.6,16.5c-1.3,0-2.4,1.1-2.4,2.4c0,1.3,1.1,2.4,2.4,2.4V22c0,1.9,1.1,3.6,2.9,4.3l5.1,2.1
			c1,0.4,2,0.6,3,0.6l0,0c1,0,2.1-0.2,3-0.6l5.1-2.1c1.8-0.7,2.9-2.4,2.9-4.3v-0.8c1.3,0,2.4-1.1,2.4-2.4c0-1.3-1.1-2.4-2.4-2.4
			v-2.5c0-2.5-2-4.5-4.5-4.5H19.1c-2.5,0-4.5,2-4.5,4.5V16.5z"/>
	</g>
	<g>
		<path class="st8" d="M20.1,19.6L20.1,19.6c-0.4,0-0.8-0.4-0.8-0.8V18c0-0.4,0.4-0.8,0.8-0.8l0,0c0.4,0,0.8,0.4,0.8,0.8v0.8
			C20.9,19.3,20.5,19.6,20.1,19.6z"/>
	</g>
	<g>
		<path class="st8" d="M31,19.6L31,19.6c-0.4,0-0.8-0.4-0.8-0.8V18c0-0.4,0.4-0.8,0.8-0.8l0,0c0.4,0,0.8,0.4,0.8,0.8v0.8
			C31.8,19.3,31.5,19.6,31,19.6z"/>
	</g>
	<g>
		<g>
			<path class="st6" d="M25.6,25.1c-1.4,0-2.7-0.3-3.6-0.9c-0.4-0.2-0.5-0.7-0.2-1.1c0.2-0.4,0.7-0.5,1.1-0.2
				c0.6,0.4,1.6,0.7,2.7,0.7c1.1,0,2.1-0.3,2.7-0.7c0.4-0.2,0.8-0.2,1.1,0.2c0.2,0.4,0.2,0.8-0.2,1.1C28.3,24.8,27,25.1,25.6,25.1z"
				/>
		</g>
	</g>
	<path class="st1" d="M14.6,16.5c-1.3,0-2.4,1.1-2.4,2.4c0,1.3,1.1,2.4,2.4,2.4V22c0,1.9,1.1,3.6,2.9,4.3l5.1,2.1
		c0.2,0.1,0.5,0.2,0.8,0.3c-2.2-1.6-3.7-3.1-4.6-4c-0.6-0.7-1-1.6-1-2.5v-4.4c2.2-0.8,8.5-3.4,8.6-7.6l-1-1
		C25.4,9.2,24.9,14.8,14.6,16.5z"/>
	<g>
		<path class="st4" d="M34.6,32.8l-2.8,4.5c-0.4,0.7-1.2,1.1-2,1.1h-8.4c-0.8,0-1.6-0.4-2-1.1l-2.8-4.5c-0.2-0.4-0.7-0.5-1.1-0.3
			l-2.6,1.5c-0.4,0.2-0.5,0.7-0.3,1.1l3.5,5.6H35l3.5-5.6c0.2-0.4,0.1-0.9-0.3-1.1l-2.6-1.5C35.3,32.3,34.8,32.4,34.6,32.8z"/>
	</g>
	<g>
		<rect x="16.2" y="40.8" class="st5" width="18.8" height="5.5"/>
	</g>
	<path class="st2" d="M29.5,0.8c-2.5,0-3.9,0.8-3.9,0.8s-1.4-0.8-3.9-0.8S9.4,5.7,13,17.1c0,0,12.5-2.2,12.5-7.6
		c0,5.4,12.5,7.6,12.5,7.6C41.7,5.7,32,0.8,29.5,0.8z"/>
	<g>
		<path class="st3" d="M25.6,1.6L25.6,1.6c0,0-1.4-0.8-3.9-0.8S9.4,5.7,13,17.1c0,0,1.5-0.3,3.5-0.8C14.3,6,23.1,1.6,25.6,1.6z"/>
	</g>
	<g>
		<path class="st4" d="M15.4,31.4h-1.6c-0.4,0-0.8-0.4-0.8-0.8l0,0c0-0.4,0.4-0.8,0.8-0.8h1.6c0.4,0,0.8,0.4,0.8,0.8l0,0
			C16.2,31,15.8,31.4,15.4,31.4z"/>
	</g>
	<g>
		<path class="st3" d="M15.4,31.4c0,0,1.4,2.4-0.8,5.5c-2.2-3.1-0.8-5.5-0.8-5.5"/>
	</g>
	<g>
		<path class="st5" d="M35.7,31.4h1.6c0.4,0,0.8-0.4,0.8-0.8l0,0c0-0.4-0.4-0.8-0.8-0.8h-1.6c-0.4,0-0.8,0.4-0.8,0.8l0,0
			C35,31,35.3,31.4,35.7,31.4z"/>
	</g>
	<g>
		<path class="st2" d="M35.7,31.4c0,0-1.4,2.4,0.8,5.5c2.2-3.1,0.8-5.5,0.8-5.5"/>
	</g>
</g>
</svg>
