<?xml version="1.0" encoding="utf-8"?>
<!-- Generator: Adobe Illustrator 19.2.1, SVG Export Plug-In . SVG Version: 6.00 Build 0)  -->
<svg version="1.1" id="Layer_1" xmlns="http://www.w3.org/2000/svg" xmlns:xlink="http://www.w3.org/1999/xlink" x="0px" y="0px"
	 viewBox="0 0 464 464" style="enable-background:new 0 0 464 464;" xml:space="preserve">
<style type="text/css">
	.st0{fill:#F6B47B;}
	.st1{fill:#6E4439;}
	.st2{fill:#5E342E;}
	.st3{fill:#F23F44;}
	.st4{fill:#FF4F4F;}
	.st5{fill:#E2A071;}
	.st6{fill:#FDC88E;}
	.st7{fill:#623F33;}
</style>
<g>
	<path class="st0" d="M391.6,425.4l-7.7-57.4c-1.6-12.3-9.9-22.6-21.5-26.9l-45.3-16.7c-5.4-1.8-9.1-6.9-9.1-12.6v-21.5l28.7-12
		c14.9-6.2,24.6-20.8,24.6-36.9v-6.7c11,0,20-9,20-20s-9-20-20-20v-13.3c0-18.4-14.9-46.7-33.3-46.7H208
		c-18.4,0-33.3,28.3-33.3,46.7v13.3c-11,0-20,9-20,20s9,20,20,20v6.7c0,16.1,9.7,30.7,24.6,36.9l28.7,12v21.5
		c0,5.7-3.7,10.8-9.1,12.6l-45.3,16.7c-11.6,4.3-19.9,14.6-21.5,26.9l-7.7,57.4c-1.6,12,7.7,22.6,19.8,22.6h207.6
		C383.9,448,393.2,437.3,391.6,425.4z"/>
	<path class="st1" d="M368,228h-13.3c0,0-6.3,17.6-6.7,40c-0.2,12.6,3.1,26.6,6.7,40H368c3.6-13.4,6.8-27.4,6.7-40
		C374.3,245.6,368,228,368,228z"/>
	<path class="st2" d="M181.3,228H168c0,0-6.4,17.6-6.7,40c-0.2,12.6,3.1,26.6,6.7,40h13.3c3.6-13.4,6.8-27.4,6.7-40
		C187.7,245.6,181.3,228,181.3,228z"/>
	<g>
		<path class="st3" d="M171.5,184.9h-36.8c-4.7,0-7.9,4.8-6.2,9.1l6.8,16.9c1.5,3.8,6.1,5.4,9.6,3.2l26.6-16V184.9z"/>
	</g>
	<g>
		<path class="st4" d="M171.5,184.9h-36.8c-4.7,0-7.9-4.8-6.2-9.1l6.8-16.9c1.5-3.8,6.1-5.4,9.6-3.2l26.6,16V184.9z"/>
	</g>
	<g>
		<path class="st3" d="M364.5,184.9h36.8c4.7,0,7.9,4.8,6.2,9.1l-6.8,16.9c-1.5,3.8-6.1,5.4-9.6,3.2l-26.6-16V184.9z"/>
	</g>
	<g>
		<path class="st4" d="M364.5,184.9h36.8c4.7,0,7.9-4.8,6.2-9.1l-6.8-16.9c-1.5-3.8-6.1-5.4-9.6-3.2l-26.6,16V184.9z"/>
	</g>
	<g>
		<path class="st5" d="M308,290.2l-80-17.8v39.3c0,4.8-2.7,9-6.7,11.4C277.2,332.9,308,290.2,308,290.2z"/>
	</g>
	<g>
		<path class="st6" d="M174.7,194.7c-11,0-20,9-20,20c0,11,9,20,20,20v6.7c0,16.1,9.7,30.7,24.6,36.9l43.1,17.9
			c8.1,3.4,16.8,5.1,25.6,5.1l0,0c8.8,0,17.5-1.7,25.6-5.1l43.1-17.9c14.9-6.2,24.6-20.8,24.6-36.9v-6.7c11,0,20-9,20-20
			s-9-20-20-20V173c0-21.2-17.2-38.3-38.3-38.3H213c-21.2,0-38.3,17.2-38.3,38.3V194.7z"/>
	</g>
	<g>
		<path class="st7" d="M221.3,221.3L221.3,221.3c-3.7,0-6.7-3-6.7-6.7V208c0-3.7,3-6.7,6.7-6.7l0,0c3.7,0,6.7,3,6.7,6.7v6.7
			C228,218.3,225,221.3,221.3,221.3z"/>
	</g>
	<g>
		<path class="st7" d="M314.7,221.3L314.7,221.3c-3.7,0-6.7-3-6.7-6.7V208c0-3.7,3-6.7,6.7-6.7l0,0c3.7,0,6.7,3,6.7,6.7v6.7
			C321.3,218.3,318.3,221.3,314.7,221.3z"/>
	</g>
	<g>
		<g>
			<path class="st5" d="M268,268.2c-11.9,0-22.9-2.9-30.4-8c-3-2.1-3.8-6.2-1.8-9.3c2.1-3,6.2-3.8,9.3-1.8
				c5.2,3.6,13.8,5.7,22.9,5.7s17.7-2.1,22.9-5.7c3-2.1,7.2-1.3,9.3,1.8c2.1,3,1.3,7.2-1.8,9.3C290.9,265.3,279.9,268.2,268,268.2z"
				/>
		</g>
	</g>
	<path class="st0" d="M174.7,194.7c-11,0-20,9-20,20s9,20,20,20v6.7c0,16.1,9.7,30.7,24.6,36.9l43.1,17.9c2.1,0.9,4.3,1.6,6.4,2.3
		c-19-13.9-31.7-26.1-39.1-34.1c-5.4-5.8-8.3-13.4-8.3-21.4v-37.3c19.1-6.7,72.6-28.5,73.3-64.5l-8.3-8.3
		C266.3,133,262.7,180.8,174.7,194.7z"/>
	<g>
		<path class="st3" d="M344.5,333.6l-24,38.4c-3.7,5.8-10.1,9.4-17,9.4h-71.2c-6.9,0-13.3-3.6-17-9.4l-24-38.4
			c-1.9-3.1-6-4.1-9.1-2.2l-21.9,13.1c-3.2,1.9-4.2,6.1-2.2,9.3l29.7,47.6h160l29.7-47.6c2-3.2,1-7.3-2.2-9.3l-21.9-13.1
			C350.5,329.5,346.5,330.5,344.5,333.6z"/>
	</g>
	<g>
		<rect x="188" y="401.3" class="st4" width="160" height="46.7"/>
	</g>
	<path class="st1" d="M301.3,61.3C279.7,61.3,268,68,268,68s-11.7-6.7-33.3-6.7S130.8,103,161.3,199.7c0,0,106.7-18.9,106.7-65
		c0,46.1,106.7,65,106.7,65C405.2,103,323,61.3,301.3,61.3z"/>
	<g>
		<path class="st2" d="M268,68L268,68c0,0-11.7-6.7-33.3-6.7S130.8,103,161.3,199.7c0,0,12.9-2.3,29.7-7.2
			C172.2,105.8,247.3,68.1,268,68z"/>
	</g>
	<g>
		<path class="st3" d="M181.3,321.3H168c-3.7,0-6.7-3-6.7-6.7l0,0c0-3.7,3-6.7,6.7-6.7h13.3c3.7,0,6.7,3,6.7,6.7l0,0
			C188,318.3,185,321.3,181.3,321.3z"/>
	</g>
	<g>
		<path class="st2" d="M181.3,321.3c0,0,11.7,20-6.7,46.7c-18.3-26.7-6.7-46.7-6.7-46.7"/>
	</g>
	<g>
		<path class="st4" d="M354.7,321.3H368c3.7,0,6.7-3,6.7-6.7l0,0c0-3.7-3-6.7-6.7-6.7h-13.3c-3.7,0-6.7,3-6.7,6.7l0,0
			C348,318.3,351,321.3,354.7,321.3z"/>
	</g>
	<g>
		<path class="st1" d="M354.7,321.3c0,0-11.7,20,6.7,46.7c18.3-26.7,6.7-46.7,6.7-46.7"/>
	</g>
</g>
</svg>
