<?xml version="1.0" encoding="utf-8"?>
<!-- Generator: Adobe Illustrator 19.2.1, SVG Export Plug-In . SVG Version: 6.00 Build 0)  -->
<svg version="1.1" id="Layer_1" xmlns="http://www.w3.org/2000/svg" xmlns:xlink="http://www.w3.org/1999/xlink" x="0px" y="0px"
	 viewBox="0 0 366 366" style="enable-background:new 0 0 366 366;" xml:space="preserve">
<style type="text/css">
	.st0{fill:#967A4A;}
	.st1{fill:#826A40;}
	.st2{fill:#65513C;}
	.st3{fill:#AD8D56;}
	.st4{fill:#FFFFFF;}
	.st5{fill:#333E48;}
	.st6{fill:none;stroke:#333E48;stroke-width:3;stroke-linecap:round;stroke-linejoin:round;stroke-miterlimit:10;}
</style>
<g>
	<path class="st0" d="M324.5,266.4c-3.8,0-6.8-3.1-6.8-6.8c0-3.8,3.1-6.8,6.8-6.8c11.5,0,20.8-9.3,20.8-20.8
		c0-11.5-9.3-20.8-20.8-20.8c-19,0-34.4-15.5-34.4-34.4s15.5-34.4,34.4-34.4c3.8,0,6.8,3.1,6.8,6.8c0,3.8-3.1,6.8-6.8,6.8
		c-11.5,0-20.8,9.3-20.8,20.8s9.3,20.8,20.8,20.8c19,0,34.4,15.5,34.4,34.4C359,251,343.5,266.4,324.5,266.4z"/>
	<path class="st1" d="M165.7,268.5c-8.3,0-15,6.7-15,15v31.1h-13.9c-5.5,0-10,4.5-10,10v5.5c0,2.5,2,4.5,4.5,4.5h39.3
		c5.5,0,10-4.5,10-10v-41.1C180.7,275.2,174,268.5,165.7,268.5z"/>
	<g>
		<path class="st0" d="M289.2,220.7H159.9v65.8c0,24.8,20.1,44.8,44.8,44.8h84.5v-0.3c30.5,0,55.2-24.7,55.2-55.2
			C344.4,245.5,319.7,220.7,289.2,220.7z"/>
		<path class="st2" d="M231,220.7v32.4c0,6.1,5,11.1,11.1,11.1c6.1,0,11.1-5,11.1-11.1v-32.4H231z"/>
		<path class="st2" d="M269.7,220.7v32.4c0,6.1,5,11.1,11.1,11.1c6.1,0,11.1-5,11.1-11.1v-32.4H269.7z"/>
	</g>
	<path class="st3" d="M294.7,258c-21.1,0-38.3,17.1-38.3,38.3c0,6.6,1.7,12.9,4.6,18.3h-4c-5.5,0-10,4.5-10,10v5.5
		c0,2.5,2,4.5,4.5,4.5h43.1c21.1,0,38.3-17.1,38.3-38.3C332.9,275.2,315.8,258,294.7,258z"/>
	<path class="st3" d="M216.2,268.5c-8.3,0-15,6.7-15,15v31.1h-13.9c-5.5,0-10,4.5-10,10v5.5c0,2.5,2,4.5,4.5,4.5h39.3
		c5.5,0,10-4.5,10-10v-41.1C231.1,275.2,224.4,268.5,216.2,268.5z"/>
	<g>
		<path class="st0" d="M236.2,175.9v-25c0-2.9-2.3-5.2-5.2-5.2c-1.4,0-2.6,0.5-3.6,1.4l-19.9,19.9c-7.4-5-16.4-7.9-26-7.9
			s-18.6,2.9-26,7.9l-19.9-19.9c-0.9-0.9-2.2-1.4-3.6-1.4c-2.9,0-5.2,2.3-5.2,5.2v62.9c0,30.2,24.5,58.3,54.7,58.3
			c30.2,0,54.7-28.2,54.7-58.3L236.2,175.9L236.2,175.9L236.2,175.9z"/>
		<path class="st4" d="M192.4,212.6h-21.6c-6.6,0-11.9,5.3-11.9,11.9c0,6.6,5.3,11.9,11.9,11.9c4.8,0,8.9-2.9,10.8-6.9
			c1.9,4.1,6,6.9,10.8,6.9c6.6,0,11.9-5.3,11.9-11.9C204.3,218,198.9,212.6,192.4,212.6z"/>
		<circle class="st5" cx="150.1" cy="202.2" r="5.5"/>
		<circle class="st5" cx="213" cy="202.2" r="5.5"/>
		<path class="st5" d="M188.3,220.6c-3.4,3.5-9.1,3.6-12.7,0.2l-4-3.8c-3.5-3.4-2.4-6.2,2.5-6.2h14.6c4.9,0,6.2,2.9,2.7,6.4
			L188.3,220.6z"/>
		<g>
			<line class="st6" x1="166" y1="226.3" x2="144.5" y2="231.4"/>
			<line class="st6" x1="168.4" y1="231.1" x2="150.7" y2="241.7"/>
			<line class="st6" x1="164.7" y1="221.1" x2="142.9" y2="220.3"/>
		</g>
		<g>
			<line class="st6" x1="197.1" y1="226.3" x2="218.6" y2="231.4"/>
			<line class="st6" x1="194.7" y1="231.1" x2="212.4" y2="241.7"/>
			<line class="st6" x1="198.4" y1="221.1" x2="220.2" y2="220.3"/>
		</g>
		<path class="st2" d="M181.6,159c-3.8,0-7.6,0.5-11.1,1.3v15.3c0,6.1,5,11.1,11.1,11.1c6.1,0,11.1-5,11.1-11.1v-15.3
			C189.1,159.5,185.4,159,181.6,159z"/>
	</g>
</g>
</svg>
