<?xml version="1.0" encoding="utf-8"?>
<!-- Generator: Adobe Illustrator 19.2.1, SVG Export Plug-In . SVG Version: 6.00 Build 0)  -->
<svg version="1.1" id="Capa_1" xmlns="http://www.w3.org/2000/svg" xmlns:xlink="http://www.w3.org/1999/xlink" x="0px" y="0px"
	 viewBox="0 0 58 58" style="enable-background:new 0 0 58 58;" xml:space="preserve">
<style type="text/css">
	.st0{fill:#5E3118;}
	.st1{fill:#77442B;}
	.st2{fill:#EAEAD6;}
	.st3{fill:#BFBDA3;}
	.st4{fill:#6D8C60;}
	.st5{fill:#91553D;}
	.st6{fill:#6D3D25;}
	.st7{fill:#E4C05C;}
</style>
<g>
	<g>
		<polygon class="st0" points="45.1,23.5 53.2,31.6 52.9,31.9 55,31.9 55,23.5 		"/>
		<path class="st0" d="M34.6,23.5H24.2c-2.3,0-4.2,1.9-4.2,4.2s1.9,4.2,4.2,4.2h2.6l-0.3-0.3L34.6,23.5z"/>
	</g>
	<g>
		<path class="st1" d="M30,25c-0.4,0-0.8,0-1.2,0.1c-0.3,0-0.6,0.3-0.6,0.6c0,0.3,0.3,0.6,0.6,0.6c0,0,0,0,0,0c0.4,0,0.8,0,1.2-0.1
			c0.3,0,0.6-0.3,0.6-0.6C30.6,25.2,30.3,25,30,25z"/>
		<path class="st1" d="M26.4,25.1c-0.4,0-0.8,0-1.2,0.1c-0.3,0-0.6,0.3-0.6,0.6c0,0.3,0.3,0.6,0.6,0.6c0,0,0,0,0,0
			c0.4,0,0.8,0,1.2,0c0.3,0,0.6-0.3,0.6-0.6C27,25.4,26.7,25.1,26.4,25.1z"/>
		<path class="st1" d="M22.6,25.6c-0.5,0.2-1,0.4-1.3,0.7c-0.2,0.2-0.2,0.6,0,0.9c0.1,0.1,0.3,0.2,0.4,0.2c0.2,0,0.3-0.1,0.4-0.2
			c0.2-0.2,0.4-0.3,0.8-0.4c0.3-0.1,0.5-0.4,0.4-0.8C23.3,25.6,22.9,25.5,22.6,25.6z"/>
		<path class="st1" d="M50.2,25.3H49c-0.3,0-0.6,0.3-0.6,0.6s0.3,0.6,0.6,0.6h1.2c0.3,0,0.6-0.3,0.6-0.6S50.5,25.3,50.2,25.3z"/>
		<path class="st1" d="M53.8,25.3h-1.2c-0.3,0-0.6,0.3-0.6,0.6s0.3,0.6,0.6,0.6h1.2c0.3,0,0.6-0.3,0.6-0.6S54.1,25.3,53.8,25.3z"/>
	</g>
	<path class="st2" d="M53.5,31.9L41.6,20c0,0-0.1,0-0.1,0L29.5,31.9H53.5z"/>
	<path class="st3" d="M29.6,31.9l10.3-10.3L38.2,20c0,0-0.1,0-0.1,0L26.1,31.9H29.6z"/>
	<path class="st4" d="M48.6,32.3l0.2-0.2L41.6,25c0,0-0.1,0-0.1,0l-7.2,7.2l0.2,0.2H48.6z"/>
	<g>
		<path class="st1" d="M20,27.7v23.5c0,2.1,1.7,3.7,3.7,3.7H55V31.9H24.2C21.9,31.9,20,30,20,27.7z"/>
	</g>
	<path class="st5" d="M51.4,35h-1.2c-0.3,0-0.6-0.3-0.6-0.6s0.3-0.6,0.6-0.6h1.2c0.3,0,0.6,0.3,0.6,0.6S51.7,35,51.4,35z M47.8,35
		h-1.2c-0.3,0-0.6-0.3-0.6-0.6s0.3-0.6,0.6-0.6h1.2c0.3,0,0.6,0.3,0.6,0.6S48.1,35,47.8,35z M44.1,35h-1.2c-0.3,0-0.6-0.3-0.6-0.6
		s0.3-0.6,0.6-0.6h1.2c0.3,0,0.6,0.3,0.6,0.6S44.5,35,44.1,35z M40.5,35h-1.2c-0.3,0-0.6-0.3-0.6-0.6s0.3-0.6,0.6-0.6h1.2
		c0.3,0,0.6,0.3,0.6,0.6S40.8,35,40.5,35z M36.9,35h-1.2c-0.3,0-0.6-0.3-0.6-0.6s0.3-0.6,0.6-0.6h1.2c0.3,0,0.6,0.3,0.6,0.6
		S37.2,35,36.9,35z M33.3,35h-1.2c-0.3,0-0.6-0.3-0.6-0.6s0.3-0.6,0.6-0.6h1.2c0.3,0,0.6,0.3,0.6,0.6S33.6,35,33.3,35z M29.6,35
		h-1.2c-0.3,0-0.6-0.3-0.6-0.6s0.3-0.6,0.6-0.6h1.2c0.3,0,0.6,0.3,0.6,0.6S30,35,29.6,35z M26,35h-1.2c-0.3,0-0.6-0.3-0.6-0.6
		s0.3-0.6,0.6-0.6H26c0.3,0,0.6,0.3,0.6,0.6S26.3,35,26,35z M22.4,34.6c-0.1,0-0.2,0-0.3-0.1c-0.4-0.2-0.8-0.4-1.2-0.7
		c-0.3-0.2-0.3-0.6-0.1-0.9c0.2-0.3,0.6-0.3,0.9-0.1c0.3,0.2,0.6,0.4,0.9,0.6c0.3,0.1,0.4,0.5,0.3,0.8
		C22.9,34.4,22.7,34.6,22.4,34.6z"/>
	<path class="st5" d="M51.4,53.1h-1.2c-0.3,0-0.6-0.3-0.6-0.6c0-0.3,0.3-0.6,0.6-0.6h1.2c0.3,0,0.6,0.3,0.6,0.6
		C52,52.8,51.7,53.1,51.4,53.1z M47.8,53.1h-1.2c-0.3,0-0.6-0.3-0.6-0.6c0-0.3,0.3-0.6,0.6-0.6h1.2c0.3,0,0.6,0.3,0.6,0.6
		C48.4,52.8,48.1,53.1,47.8,53.1z M44.1,53.1h-1.2c-0.3,0-0.6-0.3-0.6-0.6c0-0.3,0.3-0.6,0.6-0.6h1.2c0.3,0,0.6,0.3,0.6,0.6
		C44.7,52.8,44.5,53.1,44.1,53.1z M40.5,53.1h-1.2c-0.3,0-0.6-0.3-0.6-0.6c0-0.3,0.3-0.6,0.6-0.6h1.2c0.3,0,0.6,0.3,0.6,0.6
		C41.1,52.8,40.8,53.1,40.5,53.1z M36.9,53.1h-1.2c-0.3,0-0.6-0.3-0.6-0.6c0-0.3,0.3-0.6,0.6-0.6h1.2c0.3,0,0.6,0.3,0.6,0.6
		C37.5,52.8,37.2,53.1,36.9,53.1z M33.3,53.1h-1.2c-0.3,0-0.6-0.3-0.6-0.6c0-0.3,0.3-0.6,0.6-0.6h1.2c0.3,0,0.6,0.3,0.6,0.6
		C33.9,52.8,33.6,53.1,33.3,53.1z M29.6,53.1h-1.2c-0.3,0-0.6-0.3-0.6-0.6c0-0.3,0.3-0.6,0.6-0.6h1.2c0.3,0,0.6,0.3,0.6,0.6
		C30.2,52.8,30,53.1,29.6,53.1z M26,53.1h-1.2c-0.3,0-0.6-0.3-0.6-0.6c0-0.3,0.3-0.6,0.6-0.6H26c0.3,0,0.6,0.3,0.6,0.6
		C26.6,52.8,26.3,53.1,26,53.1z M22.4,52.7c-0.1,0-0.2,0-0.3-0.1c-0.4-0.2-0.8-0.4-1.2-0.7c-0.3-0.2-0.3-0.6-0.1-0.9
		c0.2-0.3,0.6-0.3,0.9-0.1c0.3,0.2,0.6,0.4,0.9,0.6c0.3,0.1,0.4,0.5,0.3,0.8C22.9,52.6,22.7,52.7,22.4,52.7z"/>
	<path class="st6" d="M55,47.1h-7.2c-2,0-3.6-1.6-3.6-3.6l0,0c0-2,1.6-3.6,3.6-3.6H55V47.1z"/>
	<path class="st0" d="M55,46.4h-7.2c-2,0-3.6-1.6-3.6-3.6l0,0c0-2,1.6-3.6,3.6-3.6H55V46.4z"/>
	<circle class="st7" cx="48.4" cy="42.8" r="1.8"/>
</g>
</svg>
