<?xml version="1.0" encoding="utf-8"?>
<!-- Generator: Adobe Illustrator 19.2.1, SVG Export Plug-In . SVG Version: 6.00 Build 0)  -->
<svg version="1.1" id="Capa_1" xmlns="http://www.w3.org/2000/svg" xmlns:xlink="http://www.w3.org/1999/xlink" x="0px" y="0px"
	 viewBox="0 0 125 125" style="enable-background:new 0 0 125 125;" xml:space="preserve">
<style type="text/css">
	.st0{fill:#E05F53;}
	.st1{fill:#FA6A5D;}
	.st2{fill:#C3996D;}
	.st3{fill:#4D4D4D;}
</style>
<g>
	<g>
		<g>
			<path class="st0" d="M98.5,112.1H45.7c-3.5,0-6.6-2.1-8.1-5.3l-12.7-38c-0.7-1.4,0.4-3,2-3h90.4c1.5,0,2.6,1.6,2,3l-12.7,38
				C105.2,110,102.1,112.1,98.5,112.1z"/>
		</g>
		<g>
			<g>
				<polygon class="st1" points="75.2,65.7 33.9,95.7 37.5,106.5 94,65.7 				"/>
			</g>
			<g>
				<path class="st1" d="M102.7,65.7l-62,44.9c1.4,1,3.2,1.5,4.9,1.5h2.4l64.2-46.4C112.1,65.7,102.7,65.7,102.7,65.7z"/>
			</g>
		</g>
		<g>
			<path class="st2" d="M97.2,78.1c-2.1,0-3.8-1.7-3.8-3.8V57c0-11.7-9.6-21.2-21.2-21.2S50.9,45.2,50.9,57v17.3
				c0,2.1-1.7,3.8-3.8,3.8s-3.8-1.7-3.8-3.8V57c0-15.9,12.9-28.9,28.9-28.9S101,41.1,101,57v17.3C101,76.4,99.3,78.1,97.2,78.1z"/>
		</g>
		<g>
			<path class="st3" d="M52.6,73.5H41.4c-0.9,0-1.6-0.8-1.6-1.6l0,0c0-0.9,0.8-1.6,1.6-1.6h11.3c0.9,0,1.6,0.8,1.6,1.6l0,0
				C54.3,72.8,53.6,73.5,52.6,73.5z"/>
		</g>
		<g>
			<path class="st3" d="M102.7,73.5H91.5c-0.9,0-1.6-0.8-1.6-1.6l0,0c0-0.9,0.8-1.6,1.6-1.6h11.3c0.9,0,1.6,0.8,1.6,1.6l0,0
				C104.4,72.8,103.7,73.5,102.7,73.5z"/>
		</g>
	</g>
</g>
</svg>
