<?xml version="1.0" encoding="utf-8"?>
<!-- Generator: Adobe Illustrator 19.2.1, SVG Export Plug-In . SVG Version: 6.00 Build 0)  -->
<svg version="1.1" id="Layer_1" xmlns="http://www.w3.org/2000/svg" xmlns:xlink="http://www.w3.org/1999/xlink" x="0px" y="0px"
	 viewBox="0 0 464 464" style="enable-background:new 0 0 464 464;" xml:space="preserve">
<style type="text/css">
	.st0{fill:#FFD7A3;}
	.st1{fill:#FDC88E;}
	.st2{fill:#734A3E;}
	.st3{fill:#623F33;}
	.st4{fill:#FFE1B2;}
	.st5{fill:#E4B07B;}
	.st6{fill:#00BEA4;}
	.st7{fill:#00AB9A;}
</style>
<g>
	<path class="st0" d="M420.7,424.3l-8.5-68.1c-1.3-10.3-8.4-18.9-18.2-22.2L361.1,323c-4.5-1.5-9.5-0.5-12.9,2.4l-9.7-3.2
		c-5.5-1.8-9.2-7-9.2-12.8v-21.7l29-12.1c15-6.3,24.8-21,24.8-37.3v-6.7c11.1,0,20.2-9,20.2-20.2c0-5-1.8-9.6-4.9-13.2
		c5.7-20.8,21.8-86.6,4.9-114.7l6.7-26.9c0,0-70.7,1.7-107.7,13.5l13.5-13.5c0,0-94.6,0-114.4,33.6l0,0c0,0-33.6-0.3-33.6,40.4
		c0,14.9,8.3,52,11.9,67.3c-3.2,3.6-5.1,8.3-5.1,13.4c0,11.1,9,20.2,20.2,20.2v6.7c0,16.3,9.8,31,24.8,37.3l29,12.1v21.7
		c0,5.8-3.7,10.9-9.2,12.8l-9.7,3.2c-3.5-3-8.4-3.9-12.9-2.4L183.9,334c-9.8,3.3-16.9,11.9-18.2,22.2l-8.5,68.1
		c-1.5,12,7.9,22.7,20,22.7h0.2h223.1h0.2C412.8,447,422.2,436.4,420.7,424.3z"/>
	<g>
		<path class="st1" d="M329.3,287.7l-80.8,0v21.7c0,4.8-2.7,9.1-6.7,11.5C298.2,330.8,329.3,287.7,329.3,287.7z"/>
	</g>
	<g>
		<path class="st2" d="M181.2,204.7c0,0-13.5-55.1-13.5-74c0-40.7,33.6-40.4,33.6-40.4l0,0c19.8-33.6,114.4-33.6,114.4-33.6
			l-13.5,13.5C339.4,58.4,410,56.7,410,56.7l-6.7,26.9c20.2,33.6-6.7,121.1-6.7,121.1H181.2z"/>
	</g>
	<g>
		<path class="st3" d="M315.8,56.7c0,0-94.6,0-114.4,33.6l0,0c0,0-33.6-0.3-33.6,40.4c0,18.9,13.5,74,13.5,74s139.9-62.5,228.8-148
			c0,0-70.7,1.7-107.7,13.5L315.8,56.7z"/>
	</g>
	<path class="st4" d="M383.1,191.3v-13.5c0-18.6-15.1-33.6-33.6-33.6H228.3c-18.6,0-33.6,15.1-33.6,33.6v13.5
		c-11.1,0-20.2,9-20.2,20.2s9,20.2,20.2,20.2v6.7c0,16.3,9.8,31,24.8,37.3l43.5,18.1c8.2,3.4,17,5.2,25.9,5.2l0,0
		c8.9,0,17.7-1.8,25.9-5.2l43.5-18.1c15-6.3,24.8-21,24.8-37.3v-6.7c11.1,0,20.2-9,20.2-20.2S394.3,191.3,383.1,191.3z"/>
	<g>
		<path class="st3" d="M241.8,218.2L241.8,218.2c-3.7,0-6.7-3-6.7-6.7v-6.7c0-3.7,3-6.7,6.7-6.7l0,0c3.7,0,6.7,3,6.7,6.7v6.7
			C248.5,215.2,245.5,218.2,241.8,218.2z"/>
	</g>
	<g>
		<path class="st3" d="M336,218.2L336,218.2c-3.7,0-6.7-3-6.7-6.7v-6.7c0-3.7,3-6.7,6.7-6.7l0,0c3.7,0,6.7,3,6.7,6.7v6.7
			C342.7,215.2,339.7,218.2,336,218.2z"/>
	</g>
	<g>
		<g>
			<path class="st5" d="M288.9,265.5c-12,0-23.2-2.9-30.7-8.1c-3.1-2.1-3.9-6.3-1.8-9.3c2.1-3.1,6.3-3.9,9.3-1.8
				c5.3,3.6,13.9,5.7,23.1,5.7c9.2,0,17.8-2.1,23.1-5.7c3.1-2.1,7.3-1.3,9.3,1.8c2.1,3.1,1.3,7.3-1.8,9.3
				C312.1,262.5,300.9,265.5,288.9,265.5z"/>
		</g>
	</g>
	<g>
		<path class="st6" d="M420.7,424.3l-8.5-68.1c-1.3-10.3-8.4-18.9-18.2-22.2L361.1,323c-5.7-1.9-12.2,0.1-15.4,5.2
			c-11.9,18.8-32.9,31.3-56.8,31.3S244,347,232.1,328.2c-3.2-5.1-9.7-7.1-15.4-5.2L183.9,334c-9.8,3.3-16.9,11.9-18.2,22.2
			l-8.5,68.1c-1.5,12,7.9,22.7,20,22.7h223.4C412.8,447,422.2,436.4,420.7,424.3z"/>
	</g>
	<g>
		<path class="st7" d="M171.3,342.8c-3,3.8-5,8.4-5.6,13.3l-8.5,68.1c-1.5,12,7.9,22.7,20,22.7h37.7v-43.8c0-6.5-2.3-12.7-6.6-17.6
			L171.3,342.8z"/>
	</g>
	<g>
		<path class="st7" d="M406.5,342.8c3,3.8,5,8.4,5.6,13.3l8.5,68.1c1.5,12-7.9,22.7-20,22.7h-37.7v-43.8c0-6.5,2.3-12.7,6.6-17.6
			L406.5,342.8z"/>
	</g>
	<path class="st0" d="M230,261.7c-5.5-5.8-8.4-13.6-8.4-21.6v-76.3c21.4-1.6,88.9-7.4,127.9-19.7H228.3c-2.3,0-4.6,0.3-6.7,0.7v-0.1
		c-15.4,3.1-26.9,16.7-26.9,33v13.5c-11.1,0-20.2,9-20.2,20.2s9,20.2,20.2,20.2v6.7c0,16.3,9.8,31,24.8,37.3l43.5,18.1
		c2.1,0.9,4.3,1.7,6.5,2.3C250.3,282,237.5,269.7,230,261.7z"/>
</g>
</svg>
