<?xml version="1.0" encoding="utf-8"?>
<!-- Generator: Adobe Illustrator 19.2.1, SVG Export Plug-In . SVG Version: 6.00 Build 0)  -->
<svg version="1.1" id="Capa_1" xmlns="http://www.w3.org/2000/svg" xmlns:xlink="http://www.w3.org/1999/xlink" x="0px" y="0px"
	 viewBox="0 0 52 67.8" style="enable-background:new 0 0 52 67.8;" xml:space="preserve">
<style type="text/css">
	.st0{fill:#1081E0;}
	.st1{fill:#FFD7A3;}
	.st2{fill:#FDC88E;}
	.st3{fill:#734A3E;}
	.st4{fill:#623F33;}
	.st5{fill:#FFE1B2;}
	.st6{fill:#E4B07B;}
	.st7{fill:#00BEA4;}
	.st8{fill:#00AB9A;}
</style>
<path class="st0" d="M38.9,21.2L38.9,21.2c-7.1-7.1-18.6-7.1-25.7,0l0,0C6.8,27.6,6,39.6,11.5,46.8l14.5,21l14.5-21
	C46,39.6,45.2,27.6,38.9,21.2z M26.2,39.8c-3.3,0-6-2.7-6-6s2.7-6,6-6s6,2.7,6,6S29.5,39.8,26.2,39.8z"/>
<g>
	<path class="st1" d="M40.3,41.5l-0.9-7.4c-0.1-1.1-0.9-2.1-2-2.4l-3.6-1.2c-0.5-0.2-1-0.1-1.4,0.3l-1.1-0.4c-0.6-0.2-1-0.8-1-1.4
		v-2.4l3.2-1.3c1.6-0.7,2.7-2.3,2.7-4.1v-0.7c1.2,0,2.2-1,2.2-2.2c0-0.5-0.2-1.1-0.5-1.4c0.6-2.3,2.4-9.4,0.5-12.5l0.7-2.9
		c0,0-7.7,0.2-11.7,1.5l1.5-1.5c0,0-10.3,0-12.5,3.7l0,0c0,0-3.7,0-3.7,4.4c0,1.6,0.9,5.7,1.3,7.3c-0.3,0.4-0.6,0.9-0.6,1.5
		c0,1.2,1,2.2,2.2,2.2v0.7c0,1.8,1.1,3.4,2.7,4.1l3.2,1.3V29c0,0.6-0.4,1.2-1,1.4l-1.1,0.4c-0.4-0.3-0.9-0.4-1.4-0.3l-3.6,1.2
		c-1.1,0.4-1.8,1.3-2,2.4l-0.9,7.4c-0.2,1.3,0.9,2.5,2.2,2.5h0h24.3h0C39.5,44,40.5,42.8,40.3,41.5z"/>
	<g>
		<path class="st2" d="M30.4,26.6l-8.8,0V29c0,0.5-0.3,1-0.7,1.3C27,31.3,30.4,26.6,30.4,26.6z"/>
	</g>
	<g>
		<path class="st3" d="M14.2,17.5c0,0-1.5-6-1.5-8.1C12.7,5,16.4,5,16.4,5l0,0c2.2-3.7,12.5-3.7,12.5-3.7l-1.5,1.5
			c4-1.3,11.7-1.5,11.7-1.5l-0.7,2.9c2.2,3.7-0.7,13.2-0.7,13.2H14.2z"/>
	</g>
	<g>
		<path class="st4" d="M28.9,1.4c0,0-10.3,0-12.5,3.7l0,0c0,0-3.7,0-3.7,4.4c0,2.1,1.5,8.1,1.5,8.1s15.3-6.8,25-16.2
			c0,0-7.7,0.2-11.7,1.5L28.9,1.4z"/>
	</g>
	<path class="st5" d="M36.2,16.1v-1.5c0-2-1.6-3.7-3.7-3.7H19.4c-2,0-3.7,1.6-3.7,3.7v1.5c-1.2,0-2.2,1-2.2,2.2s1,2.2,2.2,2.2v0.7
		c0,1.8,1.1,3.4,2.7,4.1l4.7,2c0.9,0.4,1.9,0.6,2.8,0.6l0,0c1,0,1.9-0.2,2.8-0.6l4.7-2c1.6-0.7,2.7-2.3,2.7-4.1v-0.7
		c1.2,0,2.2-1,2.2-2.2S37.5,16.1,36.2,16.1z"/>
	<g>
		<path class="st4" d="M20.8,19L20.8,19c-0.4,0-0.7-0.3-0.7-0.7v-0.7c0-0.4,0.3-0.7,0.7-0.7l0,0c0.4,0,0.7,0.3,0.7,0.7v0.7
			C21.6,18.7,21.2,19,20.8,19z"/>
	</g>
	<g>
		<path class="st4" d="M31.1,19L31.1,19c-0.4,0-0.7-0.3-0.7-0.7v-0.7c0-0.4,0.3-0.7,0.7-0.7l0,0c0.4,0,0.7,0.3,0.7,0.7v0.7
			C31.8,18.7,31.5,19,31.1,19z"/>
	</g>
	<g>
		<g>
			<path class="st6" d="M26,24.2c-1.3,0-2.5-0.3-3.4-0.9c-0.3-0.2-0.4-0.7-0.2-1c0.2-0.3,0.7-0.4,1-0.2c0.6,0.4,1.5,0.6,2.5,0.6
				s1.9-0.2,2.5-0.6c0.3-0.2,0.8-0.1,1,0.2c0.2,0.3,0.1,0.8-0.2,1C28.5,23.8,27.3,24.2,26,24.2z"/>
		</g>
	</g>
	<g>
		<path class="st7" d="M40.3,41.5l-0.9-7.4c-0.1-1.1-0.9-2.1-2-2.4l-3.6-1.2c-0.6-0.2-1.3,0-1.7,0.6c-1.3,2.1-3.6,3.4-6.2,3.4
			s-4.9-1.4-6.2-3.4c-0.4-0.6-1.1-0.8-1.7-0.6l-3.6,1.2c-1.1,0.4-1.8,1.3-2,2.4l-0.9,7.4c-0.2,1.3,0.9,2.5,2.2,2.5h24.4
			C39.5,44,40.5,42.8,40.3,41.5z"/>
	</g>
	<g>
		<path class="st8" d="M13.1,32.6c-0.3,0.4-0.5,0.9-0.6,1.5l-0.9,7.4c-0.2,1.3,0.9,2.5,2.2,2.5h4.1v-4.8c0-0.7-0.3-1.4-0.7-1.9
			L13.1,32.6z"/>
	</g>
	<g>
		<path class="st8" d="M38.8,32.6c0.3,0.4,0.5,0.9,0.6,1.5l0.9,7.4c0.2,1.3-0.9,2.5-2.2,2.5H34v-4.8c0-0.7,0.3-1.4,0.7-1.9
			L38.8,32.6z"/>
	</g>
	<path class="st1" d="M19.5,23.7c-0.6-0.6-0.9-1.5-0.9-2.4v-8.3c2.3-0.2,9.7-0.8,14-2.2H19.4c-0.3,0-0.5,0-0.7,0.1v0
		c-1.7,0.3-2.9,1.8-2.9,3.6v1.5c-1.2,0-2.2,1-2.2,2.2s1,2.2,2.2,2.2v0.7c0,1.8,1.1,3.4,2.7,4.1l4.7,2c0.2,0.1,0.5,0.2,0.7,0.3
		C21.8,26,20.4,24.6,19.5,23.7z"/>
</g>
</svg>
