<?xml version="1.0" encoding="utf-8"?>
<!-- Generator: Adobe Illustrator 19.2.1, SVG Export Plug-In . SVG Version: 6.00 Build 0)  -->
<svg version="1.1" id="Capa_1" xmlns="http://www.w3.org/2000/svg" xmlns:xlink="http://www.w3.org/1999/xlink" x="0px" y="0px"
	 viewBox="0 0 482.8 482.8" style="enable-background:new 0 0 482.8 482.8;" xml:space="preserve">
<style type="text/css">
	.st0{fill:#FFFFFF;}
</style>
<g>
	<g>
		<path class="st0" d="M407,259.8h-2.9v-25.7c0-33.1-27-60.2-60.2-60.2s-60.2,26.9-60.2,60.2c0,3,2.4,5.5,5.5,5.5
			c3.1,0,5.5-2.4,5.5-5.5c0-27.1,22-49.1,49.1-49.1s49.1,22,49.1,49.1v25.7H280.8c-5.9,0-10.6,4.7-10.6,10.6v68.6
			c0,17.5,14.4,31.9,31.9,31.9h83.6c17.5,0,31.9-14.4,31.9-31.9v-68.6C417.5,264.6,412.9,259.8,407,259.8z M406.6,339.1
			c0,11.5-9.3,20.9-20.9,20.9H302c-11.5,0-20.9-9.3-20.9-20.9v-68.2h125.4V339.1L406.6,339.1z"/>
		<path class="st0" d="M343.8,336.9c11.4,0,20.7-9.3,20.7-20.7s-9.3-20.7-20.7-20.7s-20.7,9.3-20.7,20.7S332.5,336.9,343.8,336.9z
			 M343.8,306.6c5.4,0,9.6,4.3,9.6,9.6c0,5.3-4.3,9.6-9.6,9.6c-5.4,0-9.6-4.3-9.6-9.6C334.3,310.9,338.5,306.6,343.8,306.6z"/>
	</g>
</g>
<rect x="283.7" y="232.8" class="st0" width="10.8" height="27.8"/>
</svg>
