<?xml version="1.0" encoding="utf-8"?>
<!-- Generator: Adobe Illustrator 19.2.1, SVG Export Plug-In . SVG Version: 6.00 Build 0)  -->
<svg version="1.1" id="Capa_1" xmlns="http://www.w3.org/2000/svg" xmlns:xlink="http://www.w3.org/1999/xlink" x="0px" y="0px"
	 viewBox="0 0 52 67.8" style="enable-background:new 0 0 52 67.8;" xml:space="preserve">
<style type="text/css">
	.st0{fill:#C6549F;}
	.st1{fill:#967A4A;}
	.st2{fill:#826A40;}
	.st3{fill:#65513C;}
	.st4{fill:#AD8D56;}
	.st5{fill:#FFFFFF;}
	.st6{fill:#333E48;}
	.st7{fill:none;stroke:#333E48;stroke-miterlimit:10;}
</style>
<path class="st0" d="M38.9,21.2L38.9,21.2c-7.1-7.1-18.6-7.1-25.7,0l0,0C6.8,27.6,6,39.6,11.5,46.8l14.5,21l14.5-21
	C46,39.6,45.2,27.6,38.9,21.2z M26.2,39.8c-3.3,0-6-2.7-6-6s2.7-6,6-6s6,2.7,6,6S29.5,39.8,26.2,39.8z"/>
<g>
	<path class="st1" d="M40.9,30.9c-0.7,0-1.2-0.6-1.2-1.2c0-0.7,0.6-1.2,1.2-1.2c2.1,0,3.7-1.7,3.7-3.7c0-2.1-1.7-3.7-3.7-3.7
		c-3.4,0-6.2-2.8-6.2-6.2s2.8-6.2,6.2-6.2c0.7,0,1.2,0.6,1.2,1.2c0,0.7-0.6,1.2-1.2,1.2c-2.1,0-3.7,1.7-3.7,3.7s1.7,3.7,3.7,3.7
		c3.4,0,6.2,2.8,6.2,6.2C47.1,28.1,44.3,30.9,40.9,30.9z"/>
	<path class="st2" d="M12.3,31.3c-1.5,0-2.7,1.2-2.7,2.7v5.6H7.1c-1,0-1.8,0.8-1.8,1.8v1c0,0.4,0.4,0.8,0.8,0.8h7.1
		c1,0,1.8-0.8,1.8-1.8V34C15,32.5,13.8,31.3,12.3,31.3z"/>
	<g>
		<path class="st1" d="M34.5,22.7H11.3v11.8c0,4.5,3.6,8.1,8.1,8.1h15.2v-0.1c5.5,0,9.9-4.4,9.9-9.9C44.4,27.1,40,22.7,34.5,22.7z"
			/>
		<path class="st3" d="M24.1,22.7v5.8c0,1.1,0.9,2,2,2c1.1,0,2-0.9,2-2v-5.8H24.1z"/>
		<path class="st3" d="M31,22.7v5.8c0,1.1,0.9,2,2,2c1.1,0,2-0.9,2-2v-5.8H31z"/>
	</g>
	<path class="st4" d="M35.5,29.4c-3.8,0-6.9,3.1-6.9,6.9c0,1.2,0.3,2.3,0.8,3.3h-0.7c-1,0-1.8,0.8-1.8,1.8v1c0,0.4,0.4,0.8,0.8,0.8
		h7.8c3.8,0,6.9-3.1,6.9-6.9C42.4,32.5,39.3,29.4,35.5,29.4z"/>
	<path class="st4" d="M21.4,31.3c-1.5,0-2.7,1.2-2.7,2.7v5.6h-2.5c-1,0-1.8,0.8-1.8,1.8v1c0,0.4,0.4,0.8,0.8,0.8h7.1
		c1,0,1.8-0.8,1.8-1.8V34C24.1,32.5,22.9,31.3,21.4,31.3z"/>
	<g>
		<path class="st1" d="M25,14.6v-4.5c0-0.5-0.4-0.9-0.9-0.9c-0.2,0-0.5,0.1-0.6,0.3L19.8,13c-1.3-0.9-2.9-1.4-4.7-1.4
			s-3.3,0.5-4.7,1.4L6.9,9.4C6.7,9.3,6.5,9.2,6.3,9.2c-0.5,0-0.9,0.4-0.9,0.9v11.3c0,5.4,4.4,10.5,9.8,10.5c5.4,0,9.8-5.1,9.8-10.5
			L25,14.6L25,14.6L25,14.6z"/>
		<path class="st5" d="M17.1,21.2h-3.9c-1.2,0-2.1,1-2.1,2.1c0,1.2,1,2.1,2.1,2.1c0.9,0,1.6-0.5,1.9-1.2c0.3,0.7,1.1,1.2,1.9,1.2
			c1.2,0,2.1-1,2.1-2.1C19.3,22.2,18.3,21.2,17.1,21.2z"/>
		<circle class="st6" cx="9.5" cy="19.3" r="1"/>
		<circle class="st6" cx="20.8" cy="19.3" r="1"/>
		<path class="st6" d="M16.4,22.7c-0.6,0.6-1.6,0.7-2.3,0L13.4,22c-0.6-0.6-0.4-1.1,0.5-1.1h2.6c0.9,0,1.1,0.5,0.5,1.2L16.4,22.7z"
			/>
		<g>
			<line class="st7" x1="12.4" y1="23.7" x2="8.5" y2="24.6"/>
			<line class="st7" x1="12.8" y1="24.5" x2="9.6" y2="26.5"/>
			<line class="st7" x1="12.1" y1="22.7" x2="8.2" y2="22.6"/>
		</g>
		<g>
			<line class="st7" x1="18" y1="23.7" x2="21.8" y2="24.6"/>
			<line class="st7" x1="17.5" y1="24.5" x2="20.7" y2="26.5"/>
			<line class="st7" x1="18.2" y1="22.7" x2="22.1" y2="22.6"/>
		</g>
		<path class="st3" d="M15.2,11.6c-0.7,0-1.4,0.1-2,0.2v2.8c0,1.1,0.9,2,2,2s2-0.9,2-2v-2.8C16.5,11.7,15.9,11.6,15.2,11.6z"/>
	</g>
</g>
</svg>
