<?xml version="1.0" encoding="utf-8"?>
<!-- Generator: Adobe Illustrator 19.2.1, SVG Export Plug-In . SVG Version: 6.00 Build 0)  -->
<svg version="1.1" id="Capa_1" xmlns="http://www.w3.org/2000/svg" xmlns:xlink="http://www.w3.org/1999/xlink" x="0px" y="0px"
	 viewBox="0 0 52 67.8" style="enable-background:new 0 0 52 67.8;" xml:space="preserve">
<style type="text/css">
	.st0{fill:#12DD5B;}
	.st1{fill:#5E3118;}
	.st2{fill:#77442B;}
	.st3{fill:#EAEAD6;}
	.st4{fill:#BFBDA3;}
	.st5{fill:#6D8C60;}
	.st6{fill:#91553D;}
	.st7{fill:#6D3D25;}
	.st8{fill:#E4C05C;}
</style>
<path class="st0" d="M38.9,21.2L38.9,21.2c-7.1-7.1-18.6-7.1-25.7,0l0,0C6.8,27.6,6,39.6,11.5,46.8l14.5,21l14.5-21
	C46,39.6,45.2,27.6,38.9,21.2z M26.2,39.8c-3.3,0-6-2.7-6-6s2.7-6,6-6s6,2.7,6,6S29.5,39.8,26.2,39.8z"/>
<g>
	<g>
		<polygon class="st1" points="31.6,20.7 38.1,27.1 37.8,27.4 39.5,27.4 39.5,20.7 		"/>
		<path class="st1" d="M23.3,20.7h-8.2c-1.8,0-3.3,1.5-3.3,3.3s1.5,3.3,3.3,3.3h2L16.8,27L23.3,20.7z"/>
	</g>
	<g>
		<path class="st2" d="M19.7,21.9c-0.3,0-0.6,0-0.9,0s-0.5,0.2-0.5,0.5s0.2,0.5,0.5,0.5l0,0c0.3,0,0.7,0,1-0.1
			c0.3,0,0.5-0.2,0.4-0.5S19.9,21.8,19.7,21.9z"/>
		<path class="st2" d="M16.8,21.9c-0.3,0-0.7,0-1,0c-0.3,0-0.5,0.2-0.4,0.5c0,0.3,0.2,0.4,0.5,0.4l0,0c0.3,0,0.6,0,0.9,0
			s0.5-0.2,0.5-0.5C17.3,22.2,17.1,22,16.8,21.9z"/>
		<path class="st2" d="M13.9,22.3c-0.4,0.1-0.8,0.3-1,0.6c-0.2,0.2-0.2,0.5,0,0.7c0.1,0.1,0.2,0.1,0.3,0.1s0.2,0,0.3-0.1
			s0.4-0.3,0.6-0.3c0.3-0.1,0.4-0.4,0.3-0.6C14.4,22.4,14.1,22.2,13.9,22.3z"/>
		<path class="st2" d="M35.7,22.1h-1c-0.3,0-0.5,0.2-0.5,0.5s0.2,0.5,0.5,0.5h1c0.3,0,0.5-0.2,0.5-0.5S35.9,22.1,35.7,22.1z"/>
		<path class="st2" d="M38.5,22.1h-1c-0.3,0-0.5,0.2-0.5,0.5s0.2,0.5,0.5,0.5h1c0.3,0,0.5-0.2,0.5-0.5S38.8,22.1,38.5,22.1z"/>
	</g>
	<path class="st3" d="M38.3,27.4L28.9,18h-0.1l-9.4,9.4H38.3z"/>
	<path class="st4" d="M19.4,27.4l8.1-8.1L26.2,18h-0.1l-9.4,9.4H19.4z"/>
	<path class="st5" d="M34.4,27.7l0.1-0.1l-5.7-5.7c0,0,0,0-0.1,0L23,27.6l0.1,0.1C23.1,27.7,34.4,27.7,34.4,27.7z"/>
	<g>
		<path class="st2" d="M11.8,24v18.6c0,1.6,1.3,2.9,2.9,2.9h24.8V27.4H15.1C13.3,27.4,11.8,25.9,11.8,24z"/>
	</g>
	<path class="st6" d="M36.6,29.7h-1c-0.3,0-0.5-0.2-0.5-0.5s0.2-0.5,0.5-0.5h1c0.3,0,0.5,0.2,0.5,0.5S36.9,29.7,36.6,29.7z
		 M33.8,29.7h-1c-0.3,0-0.5-0.2-0.5-0.5s0.2-0.5,0.5-0.5h1c0.3,0,0.5,0.2,0.5,0.5C34.2,29.5,34,29.7,33.8,29.7z M30.9,29.7h-1
		c-0.3,0-0.5-0.2-0.5-0.5s0.2-0.5,0.5-0.5h1c0.3,0,0.5,0.2,0.5,0.5S31.2,29.7,30.9,29.7z M28,29.7h-1c-0.3,0-0.5-0.2-0.5-0.5
		s0.2-0.5,0.5-0.5h1c0.3,0,0.5,0.2,0.5,0.5S28.3,29.7,28,29.7z M25.2,29.7h-1c-0.3,0-0.5-0.2-0.5-0.5s0.2-0.5,0.5-0.5h1
		c0.3,0,0.5,0.2,0.5,0.5C25.6,29.5,25.4,29.7,25.2,29.7z M22.3,29.7h-1c-0.3,0-0.5-0.2-0.5-0.5s0.2-0.5,0.5-0.5h1
		c0.3,0,0.5,0.2,0.5,0.5S22.6,29.7,22.3,29.7z M19.4,29.7h-1c-0.3,0-0.5-0.2-0.5-0.5s0.2-0.5,0.5-0.5h1c0.3,0,0.5,0.2,0.5,0.5
		S19.7,29.7,19.4,29.7z M16.6,29.7h-1c-0.3,0-0.5-0.2-0.5-0.5s0.2-0.5,0.5-0.5h1c0.3,0,0.5,0.2,0.5,0.5C17,29.5,16.8,29.7,16.6,29.7
		z M13.7,29.4c-0.1,0-0.1,0-0.2,0c-0.3-0.2-0.6-0.3-0.9-0.6c-0.2-0.2-0.2-0.5,0-0.7s0.5-0.2,0.7,0s0.4,0.3,0.7,0.4
		c0.2,0.1,0.3,0.4,0.2,0.6C14.1,29.3,13.9,29.4,13.7,29.4z"/>
	<path class="st6" d="M36.6,44.1h-1c-0.3,0-0.5-0.2-0.5-0.5s0.2-0.5,0.5-0.5h1c0.3,0,0.5,0.2,0.5,0.5C37.1,43.9,36.9,44.1,36.6,44.1
		z M33.8,44.1h-1c-0.3,0-0.5-0.2-0.5-0.5s0.2-0.5,0.5-0.5h1c0.3,0,0.5,0.2,0.5,0.5C34.2,43.9,34,44.1,33.8,44.1z M30.9,44.1h-1
		c-0.3,0-0.5-0.2-0.5-0.5s0.2-0.5,0.5-0.5h1c0.3,0,0.5,0.2,0.5,0.5C31.4,43.9,31.2,44.1,30.9,44.1z M28,44.1h-1
		c-0.3,0-0.5-0.2-0.5-0.5s0.2-0.5,0.5-0.5h1c0.3,0,0.5,0.2,0.5,0.5C28.5,43.9,28.3,44.1,28,44.1z M25.2,44.1h-1
		c-0.3,0-0.5-0.2-0.5-0.5s0.2-0.5,0.5-0.5h1c0.3,0,0.5,0.2,0.5,0.5C25.6,43.9,25.4,44.1,25.2,44.1z M22.3,44.1h-1
		c-0.3,0-0.5-0.2-0.5-0.5s0.2-0.5,0.5-0.5h1c0.3,0,0.5,0.2,0.5,0.5C22.8,43.9,22.6,44.1,22.3,44.1z M19.4,44.1h-1
		c-0.3,0-0.5-0.2-0.5-0.5s0.2-0.5,0.5-0.5h1c0.3,0,0.5,0.2,0.5,0.5C19.9,43.9,19.7,44.1,19.4,44.1z M16.6,44.1h-1
		c-0.3,0-0.5-0.2-0.5-0.5s0.2-0.5,0.5-0.5h1c0.3,0,0.5,0.2,0.5,0.5C17,43.9,16.8,44.1,16.6,44.1z M13.7,43.8c-0.1,0-0.1,0-0.2,0
		c-0.3-0.2-0.6-0.3-0.9-0.6c-0.2-0.2-0.2-0.5,0-0.7s0.5-0.2,0.7,0s0.4,0.3,0.7,0.4c0.2,0.1,0.3,0.4,0.2,0.6
		C14.1,43.7,13.9,43.8,13.7,43.8z"/>
	<path class="st7" d="M39.5,39.4h-5.7c-1.6,0-2.9-1.3-2.9-2.9l0,0c0-1.6,1.3-2.9,2.9-2.9h5.7V39.4z"/>
	<path class="st1" d="M39.5,38.8h-5.7c-1.6,0-2.9-1.3-2.9-2.9l0,0c0-1.6,1.3-2.9,2.9-2.9h5.7V38.8z"/>
	<circle class="st8" cx="34.2" cy="36" r="1.4"/>
</g>
</svg>
